<?xml version="1.0" encoding="UTF-8" standalone="no"?>
<!-- Created with Inkscape (http://www.inkscape.org/) -->

<svg
   xmlns:dc="http://purl.org/dc/elements/1.1/"
   xmlns:cc="http://creativecommons.org/ns#"
   xmlns:rdf="http://www.w3.org/1999/02/22-rdf-syntax-ns#"
   xmlns:svg="http://www.w3.org/2000/svg"
   xmlns="http://www.w3.org/2000/svg"
   xmlns:sodipodi="http://sodipodi.sourceforge.net/DTD/sodipodi-0.dtd"
   xmlns:inkscape="http://www.inkscape.org/namespaces/inkscape"
   id="svg2"
   height="240"
   width="280"
   version="1.1"
   viewBox="0 0 280 240.00017"
   sodipodi:docname="european-council-logo.svg"
   inkscape:version="0.92.2 (5c3e80d, 2017-08-06)">
  <defs
     id="defs35" />
  <sodipodi:namedview
     pagecolor="#ffffff"
     bordercolor="#666666"
     borderopacity="1"
     objecttolerance="10"
     gridtolerance="10"
     guidetolerance="10"
     inkscape:pageopacity="0"
     inkscape:pageshadow="2"
     inkscape:window-width="1440"
     inkscape:window-height="856"
     id="namedview33"
     showgrid="false"
     inkscape:zoom="1"
     inkscape:cx="119.38262"
     inkscape:cy="136.35359"
     inkscape:window-x="0"
     inkscape:window-y="22"
     inkscape:window-maximized="0"
     inkscape:current-layer="layer1" />
  <metadata
     id="metadata7">
    <rdf:RDF>
      <cc:Work
         rdf:about="">
        <dc:format>image/svg+xml</dc:format>
        <dc:type
           rdf:resource="http://purl.org/dc/dcmitype/StillImage" />
        <dc:title></dc:title>
      </cc:Work>
    </rdf:RDF>
  </metadata>
  <g
     id="layer1"
     transform="translate(-108.6 -129.31)">
    <g
       transform="matrix(4.3020638,0,0,-4.3020638,129.13239,305.20998)"
       id="g3384">
      <path
         style="fill:#b2b2b2"
         inkscape:connector-curvature="0"
         d="M 0,0 C 0.185,-0.023 0.374,-0.045 0.566,-0.069 0.733,-0.091 0.901,-0.112 1.071,-0.132 1.433,-0.173 1.806,-0.214 2.188,-0.257 2.775,-0.324 3.387,-0.386 4.016,-0.45 4.124,-0.461 4.234,-0.472 4.343,-0.484 4.874,-0.534 5.42,-0.582 5.977,-0.63 6.192,-0.649 6.41,-0.668 6.627,-0.687 6.753,-0.698 6.878,-0.709 7.004,-0.72 7.272,-0.742 7.54,-0.762 7.811,-0.783 c 0.082,-0.006 0.163,-0.012 0.245,-0.018 0.318,-0.022 0.64,-0.043 0.963,-0.066 0.4,-0.026 0.802,-0.05 1.207,-0.075 0.42,-0.026 0.844,-0.055 1.273,-0.079 0.84,-0.043 1.698,-0.076 2.561,-0.111 0.244,-0.009 0.488,-0.02 0.733,-0.028 0.188,-0.008 0.378,-0.015 0.569,-0.021 0.202,-0.004 0.403,-0.01 0.605,-0.016 0.231,-0.004 0.463,-0.007 0.696,-0.011 0.158,-0.004 0.317,-0.008 0.474,-0.01 0.151,-0.004 -0.212,-0.005 0.168,-0.007 V 1.14 C 16.428,1.142 16.599,1.143 16.479,1.145 16.344,1.146 15.429,1.148 15.293,1.149 15.159,1.154 14.258,1.159 14.124,1.164 13.856,1.172 12.021,1.182 11.758,1.192 11.495,1.207 9.733,1.22 9.478,1.235 9.35,1.244 8.548,1.248 8.423,1.258 8.298,1.269 7.525,1.279 7.403,1.289 7.157,1.308 5.508,1.327 5.275,1.346 5.041,1.371 3.501,1.394 3.282,1.418 3.173,1.429 2.492,1.44 2.387,1.45 2.282,1.461 1.637,1.477 1.535,1.489 1.133,1.545 -1.377,1.586 -1.699,1.64 -1.861,1.666 -2.869,1.689 -3.01,1.711 -3.08,1.722 -3.439,1.73 -3.505,1.742 -3.569,1.753 -3.886,1.765 -3.945,1.777 -3.953,1.779 -3.965,1.78 -3.975,1.781 -3.873,1.351 -3.763,0.928 -3.647,0.513 -3.529,0.495 -3.41,0.475 -3.283,0.455 -2.603,0.351 -1.806,0.239 -0.91,0.121 -0.617,0.08 -0.313,0.04 0,0 m -2.384,11.15 c 0.606,-0.064 1.244,-0.124 1.91,-0.187 0.666,-0.065 1.362,-0.125 2.081,-0.183 0.719,-0.061 1.463,-0.12 2.228,-0.176 0.383,-0.03 0.771,-0.058 1.163,-0.089 0.394,-0.025 0.791,-0.05 1.194,-0.076 0.805,-0.049 1.628,-0.102 2.465,-0.146 1.669,-0.103 3.42,-0.156 5.188,-0.228 0.443,-0.012 0.887,-0.025 1.333,-0.039 0.441,-0.009 0.884,-0.017 1.327,-0.026 0.343,-0.007 0.105,-0.012 0.8,-0.017 v 3.012 H -4.624 c -0.064,-0.569 -0.112,-1.033 -0.146,-1.587 0.216,-0.024 0.436,-0.049 0.664,-0.075 0.541,-0.063 1.116,-0.121 1.722,-0.183 m 44.579,5.126 c -0.031,0.155 -0.06,0.308 -0.094,0.464 -0.099,0.458 -0.193,0.806 -0.287,1.241 -0.428,0.046 -0.876,0.092 -1.344,0.14 -0.606,0.063 -1.244,0.123 -1.912,0.186 -0.664,0.066 -1.358,0.126 -2.078,0.184 -0.72,0.062 -1.463,0.119 -2.228,0.175 -0.383,0.03 -0.771,0.059 -1.164,0.089 -0.392,0.025 -0.79,0.051 -1.193,0.076 -0.805,0.049 -1.629,0.103 -2.465,0.146 -1.668,0.104 -3.419,0.156 -5.188,0.227 -0.444,0.014 -0.888,0.028 -1.333,0.041 -0.442,0.009 -0.884,0.017 -1.327,0.026 -0.844,0.019 -1.691,0.022 -2.538,0.034 C 18.197,19.293 17.349,19.29 16.505,19.271 16.062,19.262 15.619,19.254 15.178,19.245 14.732,19.232 14.288,19.218 13.845,19.204 12.077,19.133 10.326,19.081 8.657,18.977 7.82,18.934 6.997,18.88 6.192,18.831 5.789,18.806 5.392,18.78 4.998,18.755 4.606,18.725 4.218,18.696 3.835,18.666 3.07,18.61 2.326,18.553 1.607,18.491 0.888,18.433 0.192,18.373 -0.474,18.307 -1.14,18.244 -1.778,18.184 -2.384,18.121 -2.851,18.073 -3.299,18.027 -3.727,17.981 -3.82,17.546 -3.915,17.198 -4.014,16.74 -4.047,16.584 -4.076,16.431 -4.108,16.276 H 19.044 Z M 1.552,-4.899 c 0.169,-0.023 0.341,-0.048 0.514,-0.072 0.152,-0.022 0.305,-0.042 0.46,-0.062 0.332,-0.041 0.669,-0.082 1.017,-0.123 0.548,-0.067 1.116,-0.133 1.702,-0.199 0.101,-0.012 0.203,-0.024 0.306,-0.036 0.496,-0.049 1.002,-0.096 1.521,-0.147 0.201,-0.018 0.405,-0.038 0.61,-0.056 0.115,-0.012 0.233,-0.024 0.35,-0.033 0.248,-0.024 0.5,-0.044 0.753,-0.067 0.076,-0.006 0.152,-0.012 0.227,-0.018 0.298,-0.021 0.599,-0.042 0.901,-0.063 0.37,-0.026 0.746,-0.051 1.123,-0.077 0.392,-0.026 0.788,-0.052 1.188,-0.077 0.784,-0.044 1.583,-0.075 2.387,-0.108 0.227,-0.01 0.452,-0.02 0.68,-0.028 0.177,-0.006 0.354,-0.013 0.531,-0.019 0.188,-0.004 0.376,-0.01 0.564,-0.014 0.216,-0.005 0.432,-0.008 0.649,-0.013 0.089,0 0.18,-0.003 0.27,-0.003 v 1.99 c -0.584,10e-4 -0.253,0.003 -0.378,0.004 -0.205,0.002 -0.928,0.004 -1.131,0.007 -0.202,0.007 -0.915,0.014 -1.115,0.023 -0.404,0.013 -1.849,0.026 -2.244,0.041 -0.393,0.022 -1.786,0.043 -2.168,0.066 -0.192,0.011 -0.833,0.02 -1.02,0.034 -0.188,0.016 -0.806,0.031 -0.989,0.046 -0.368,0.029 -1.668,0.057 -2.018,0.085 -0.348,0.038 -1.564,0.072 -1.893,0.108 -0.164,0.016 -0.707,0.032 -0.866,0.048 -0.158,0.018 -0.673,0.04 -0.824,0.06 -0.605,0.081 -2.59,0.142 -3.074,0.226 -0.244,0.038 -1.043,0.073 -1.254,0.106 -0.106,0.015 -0.403,0.03 -0.499,0.047 -0.041,0.008 -0.112,0.014 -0.186,0.022 0.167,-0.4 0.34,-0.791 0.517,-1.171 0.124,-0.023 0.253,-0.044 0.388,-0.068 0.632,-0.108 1.357,-0.219 2.161,-0.337 0.272,-0.04 0.552,-0.081 0.84,-0.122 m 15.753,-8.706 c -0.553,0.004 -0.252,0.006 -0.503,0.009 -0.339,0.013 -0.676,0.025 -1.01,0.037 -0.672,0.023 -1.339,0.046 -1.997,0.069 -0.657,0.038 -1.306,0.075 -1.945,0.111 -0.318,0.019 -0.636,0.032 -0.948,0.059 -0.314,0.025 -0.623,0.049 -0.928,0.074 -0.614,0.048 -1.214,0.097 -1.797,0.143 -0.582,0.061 -1.148,0.121 -1.694,0.18 -0.274,0.026 -0.543,0.054 -0.809,0.08 -0.263,0.03 -0.52,0.067 -0.772,0.098 -0.46,0.063 -0.903,0.118 -1.325,0.172 0.368,-0.409 0.709,-0.767 1.011,-1.069 0.024,-0.004 0.046,-0.01 0.071,-0.013 0.254,-0.046 0.513,-0.096 0.779,-0.138 0.267,-0.041 0.537,-0.082 0.813,-0.122 0.554,-0.079 1.127,-0.161 1.714,-0.245 0.593,-0.069 1.2,-0.138 1.821,-0.209 0.312,-0.034 0.626,-0.069 0.944,-0.104 0.318,-0.033 0.641,-0.051 0.965,-0.079 0.65,-0.051 1.31,-0.102 1.979,-0.153 0.671,-0.042 1.35,-0.071 2.036,-0.1 0.342,-0.015 0.686,-0.029 1.03,-0.045 0.271,-0.004 -0.019,-0.035 0.565,-0.047 z M 4.907,-9.712 c 0.508,-0.068 1.034,-0.136 1.574,-0.204 0.096,-0.012 0.19,-0.024 0.287,-0.036 0.459,-0.049 0.93,-0.099 1.409,-0.148 0.187,-0.02 0.376,-0.04 0.566,-0.059 0.108,-0.012 0.215,-0.022 0.325,-0.032 0.231,-0.024 0.464,-0.045 0.699,-0.07 0.07,-0.005 0.141,-0.012 0.212,-0.018 0.275,-0.021 0.554,-0.04 0.834,-0.061 0.345,-0.026 0.692,-0.051 1.041,-0.075 0.365,-0.026 0.734,-0.053 1.105,-0.079 0.727,-0.043 1.465,-0.072 2.211,-0.104 0.208,-0.009 0.417,-0.017 0.627,-0.027 0.165,-0.005 0.329,-0.012 0.493,-0.02 0.174,-0.002 0.35,-0.007 0.524,-0.01 0.164,-0.003 0.328,-0.006 0.491,-0.01 v 1.623 c -0.134,0 -0.069,0 0,10e-4 v 0.001 c -0.286,0.004 -0.75,0.006 -0.996,0.008 -0.271,0.011 -0.796,0.021 -1.065,0.029 -0.536,0.02 -1.592,0.038 -2.119,0.057 -0.525,0.029 -1.545,0.058 -2.057,0.088 -0.254,0.016 -0.734,0.026 -0.983,0.047 -0.25,0.02 -0.714,0.039 -0.959,0.059 -0.491,0.04 -1.441,0.078 -1.907,0.115 C 6.754,-8.588 5.863,-8.54 5.426,-8.494 5.207,-8.472 4.8,-8.45 4.588,-8.429 4.377,-8.406 3.993,-8.376 3.79,-8.35 c -0.806,0.11 -2.266,0.19 -2.912,0.301 -0.201,0.031 -0.504,0.062 -0.772,0.091 0.241,-0.388 0.483,-0.761 0.726,-1.116 0.467,-0.084 0.973,-0.168 1.51,-0.255 0.251,-0.042 0.509,-0.082 0.773,-0.125 0.151,-0.024 0.305,-0.047 0.46,-0.073 0.137,-0.02 0.276,-0.042 0.416,-0.063 0.3,-0.04 0.604,-0.081 0.916,-0.122 M -1.555,5.417 C -1.352,5.393 -1.145,5.371 -0.933,5.346 -0.754,5.326 -0.571,5.305 -0.385,5.285 0.008,5.243 0.416,5.201 0.834,5.16 1.46,5.093 2.113,5.033 2.787,4.971 2.902,4.961 3.018,4.949 3.135,4.938 3.702,4.889 4.286,4.841 4.881,4.794 5.111,4.775 5.341,4.756 5.574,4.737 5.708,4.726 5.842,4.715 5.977,4.704 6.261,4.683 6.549,4.664 6.838,4.643 6.925,4.637 7.011,4.633 7.099,4.626 7.439,4.604 7.781,4.582 8.127,4.56 8.553,4.532 8.984,4.508 9.417,4.482 9.864,4.455 10.316,4.427 10.772,4.404 11.671,4.36 12.587,4.326 13.511,4.291 13.771,4.28 14.033,4.269 14.295,4.259 14.498,4.252 14.699,4.245 14.902,4.239 15.117,4.233 15.332,4.227 15.549,4.221 15.794,4.215 16.041,4.212 16.289,4.207 16.458,4.204 16.628,4.201 16.797,4.198 17.05,4.193 16.75,4.189 17.305,4.186 V 6.923 C 16.19,6.924 16.106,6.924 16.032,6.926 15.964,6.926 14.857,6.927 14.79,6.927 14.723,6.93 13.635,6.933 13.568,6.935 13.433,6.94 11.211,6.945 11.079,6.948 10.948,6.957 8.813,6.963 8.686,6.971 8.621,6.975 7.659,6.977 7.596,6.984 7.534,6.988 6.606,6.993 6.545,6.998 6.422,7.007 4.424,7.017 4.306,7.026 4.191,7.039 2.326,7.05 2.216,7.062 2.16,7.067 1.342,7.073 1.29,7.078 1.237,7.084 0.465,7.091 0.414,7.098 0.212,7.125 -2.822,7.146 -2.984,7.173 -3.065,7.185 -4.28,7.198 -4.35,7.208 -4.378,7.213 -4.646,7.216 -4.774,7.22 -4.745,6.742 -4.705,6.27 -4.656,5.805 -4.031,5.721 -3.32,5.631 -2.532,5.534 -2.218,5.494 -1.892,5.455 -1.555,5.417 M 3.79,38.544 c 0.203,0.026 0.587,0.056 0.798,0.079 0.212,0.02 0.619,0.043 0.838,0.065 0.437,0.046 1.328,0.094 1.793,0.143 0.466,0.037 1.416,0.075 1.907,0.114 0.245,0.02 0.709,0.04 0.959,0.06 0.249,0.021 0.729,0.031 0.983,0.047 0.512,0.029 1.532,0.059 2.057,0.089 0.527,0.018 1.583,0.036 2.119,0.055 0.269,0.009 0.794,0.019 1.065,0.029 0.27,0.003 0.802,0.006 1.074,0.009 0.401,0.004 1.101,0.008 1.661,0.012 0.559,-0.004 1.259,-0.008 1.66,-0.012 0.272,-0.003 0.804,-0.006 1.074,-0.009 0.272,-0.01 0.795,-0.02 1.064,-0.029 0.537,-0.019 1.592,-0.037 2.12,-0.055 0.525,-0.03 1.546,-0.06 2.056,-0.089 0.255,-0.016 0.734,-0.026 0.985,-0.047 0.249,-0.02 0.713,-0.04 0.958,-0.06 0.49,-0.039 1.44,-0.077 1.907,-0.114 0.465,-0.049 1.355,-0.097 1.793,-0.143 0.22,-0.022 0.626,-0.045 0.837,-0.065 0.212,-0.023 0.597,-0.053 0.799,-0.079 0.807,-0.109 2.267,-0.19 2.912,-0.302 0.261,-0.04 0.689,-0.078 0.994,-0.114 -0.046,0.322 -0.092,0.651 -0.14,0.985 -0.118,0.024 -0.241,0.049 -0.368,0.073 -0.585,0.112 -1.239,0.223 -1.95,0.337 -0.252,0.041 -0.51,0.083 -0.774,0.125 -0.151,0.023 -0.304,0.049 -0.459,0.073 -0.137,0.022 -0.276,0.043 -0.417,0.063 -0.298,0.04 -0.604,0.08 -0.915,0.122 -0.509,0.067 -1.034,0.135 -1.575,0.204 -0.095,0.012 -0.189,0.024 -0.286,0.035 -0.459,0.05 -0.929,0.099 -1.409,0.148 -0.187,0.02 -0.377,0.04 -0.567,0.06 -0.107,0.01 -0.215,0.022 -0.324,0.032 -0.231,0.024 -0.464,0.046 -0.7,0.069 -0.068,0.006 -0.139,0.012 -0.21,0.018 -0.275,0.023 -0.554,0.04 -0.835,0.063 -0.344,0.024 -0.691,0.05 -1.042,0.075 -0.364,0.027 -0.733,0.053 -1.103,0.079 -0.729,0.041 -1.467,0.072 -2.212,0.103 l -0.627,0.027 c -0.165,0.006 -0.329,0.012 -0.493,0.019 -0.174,0.004 -0.35,0.008 -0.524,0.011 -0.201,0.005 -0.401,0.007 -0.602,0.012 -0.137,0.001 -0.274,0.004 -0.411,0.006 -0.404,0.008 -0.811,0.014 -1.216,0.019 C 18.638,40.881 18.232,40.875 17.829,40.867 17.69,40.865 17.552,40.862 17.416,40.861 17.215,40.856 17.014,40.854 16.814,40.849 16.64,40.846 16.464,40.842 16.29,40.838 16.126,40.831 15.962,40.825 15.797,40.819 15.587,40.81 15.378,40.801 15.17,40.792 14.424,40.761 13.686,40.73 12.959,40.689 12.588,40.663 12.219,40.637 11.854,40.61 11.505,40.585 11.158,40.559 10.813,40.535 10.533,40.512 10.254,40.495 9.979,40.472 9.908,40.466 9.837,40.46 9.767,40.454 9.532,40.431 9.299,40.409 9.068,40.385 8.958,40.375 8.851,40.363 8.743,40.353 8.553,40.333 8.364,40.313 8.177,40.293 7.698,40.244 7.227,40.195 6.768,40.145 6.671,40.134 6.577,40.122 6.481,40.11 5.941,40.041 5.415,39.973 4.907,39.906 4.595,39.864 4.291,39.824 3.991,39.784 3.851,39.764 3.712,39.743 3.575,39.721 3.42,39.697 3.266,39.671 3.115,39.648 2.851,39.606 2.593,39.564 2.342,39.523 1.631,39.409 0.978,39.298 0.393,39.186 0.265,39.162 0.142,39.137 0.024,39.113 c -0.048,-0.334 -0.095,-0.663 -0.14,-0.985 0.305,0.036 0.733,0.074 0.994,0.114 0.646,0.112 2.106,0.193 2.912,0.302 M 17.305,-10.67 v 0.002 c -0.056,0 -0.093,-0.001 0,-0.002 m 0,4.549 v 0.002 c -0.036,0 -0.049,-0.002 0,-0.002 M 2.659,33.804 c 0.151,0.02 0.666,0.042 0.824,0.06 0.159,0.015 0.702,0.032 0.866,0.048 0.329,0.034 1.545,0.071 1.893,0.108 0.35,0.027 1.65,0.057 2.018,0.085 0.183,0.015 0.801,0.03 0.989,0.046 0.187,0.014 0.828,0.022 1.02,0.034 0.382,0.023 1.775,0.045 2.168,0.067 0.395,0.014 1.84,0.027 2.244,0.041 0.2,0.007 0.913,0.015 1.115,0.023 0.203,0.003 0.926,0.003 1.131,0.007 0.355,0.002 1.543,0.006 2.117,0.01 0.573,-0.004 1.761,-0.008 2.116,-0.01 0.205,-0.004 0.928,-0.004 1.131,-0.007 0.202,-0.008 0.915,-0.016 1.117,-0.023 0.402,-0.014 1.847,-0.027 2.242,-0.041 0.394,-0.022 1.786,-0.044 2.169,-0.067 0.192,-0.012 0.832,-0.02 1.019,-0.034 0.187,-0.016 0.806,-0.031 0.989,-0.046 0.368,-0.028 1.668,-0.058 2.018,-0.085 0.348,-0.037 1.564,-0.074 1.893,-0.108 0.164,-0.016 0.708,-0.033 0.866,-0.048 0.159,-0.018 0.673,-0.04 0.825,-0.06 0.604,-0.081 2.59,-0.143 3.074,-0.226 0.085,-0.012 0.241,-0.026 0.417,-0.039 -0.071,0.42 -0.14,0.831 -0.205,1.237 -0.419,0.066 -0.864,0.132 -1.339,0.203 -0.273,0.039 -0.553,0.081 -0.841,0.122 -0.169,0.024 -0.34,0.048 -0.514,0.071 -0.151,0.022 -0.305,0.043 -0.461,0.063 -0.33,0.04 -0.669,0.081 -1.015,0.123 -0.55,0.067 -1.117,0.134 -1.702,0.199 -0.102,0.011 -0.203,0.024 -0.307,0.035 -0.495,0.049 -1.003,0.098 -1.521,0.147 -0.202,0.019 -0.405,0.039 -0.609,0.058 -0.116,0.011 -0.233,0.022 -0.35,0.033 -0.249,0.022 -0.5,0.044 -0.754,0.066 -0.076,0.006 -0.151,0.013 -0.226,0.018 -0.299,0.022 -0.599,0.042 -0.901,0.063 -0.371,0.026 -0.746,0.051 -1.124,0.076 -0.392,0.027 -0.789,0.055 -1.189,0.079 -0.784,0.042 -1.581,0.075 -2.386,0.107 -0.226,0.01 -0.452,0.018 -0.68,0.028 -0.176,0.007 -0.354,0.013 -0.531,0.019 -0.188,0.005 -0.376,0.01 -0.564,0.013 -0.216,0.005 -0.432,0.009 -0.648,0.013 -0.148,0.002 -0.296,0.005 -0.445,0.008 -0.52,0.011 -1.042,0.017 -1.564,0.024 C 18.521,36.337 17.999,36.331 17.478,36.32 17.33,36.317 17.181,36.314 17.035,36.312 16.818,36.308 16.602,36.304 16.386,36.299 16.198,36.296 16.01,36.291 15.822,36.286 15.645,36.28 15.468,36.274 15.291,36.267 15.063,36.257 14.838,36.249 14.611,36.239 13.807,36.207 13.008,36.174 12.224,36.132 11.824,36.108 11.428,36.08 11.036,36.053 10.659,36.028 10.283,36.003 9.913,35.977 9.611,35.956 9.31,35.936 9.012,35.914 8.937,35.909 8.861,35.902 8.785,35.896 8.532,35.874 8.28,35.852 8.032,35.83 7.915,35.819 7.797,35.808 7.682,35.797 7.477,35.778 7.273,35.758 7.072,35.739 6.553,35.69 6.047,35.641 5.551,35.592 5.448,35.581 5.346,35.568 5.245,35.557 4.659,35.492 4.091,35.425 3.543,35.358 3.195,35.316 2.858,35.275 2.526,35.235 2.371,35.215 2.218,35.194 2.066,35.172 1.893,35.149 1.721,35.125 1.552,35.101 1.264,35.06 0.984,35.018 0.712,34.979 0.236,34.908 -0.21,34.842 -0.628,34.776 -0.694,34.37 -0.761,33.959 -0.833,33.539 c 0.175,0.013 0.331,0.027 0.418,0.039 0.484,0.083 2.469,0.145 3.074,0.226 M 1.29,22.405 c 0.052,0.006 0.87,0.011 0.926,0.015 0.11,0.013 1.975,0.026 2.09,0.037 0.118,0.009 2.116,0.019 2.239,0.027 0.061,0.006 0.989,0.011 1.051,0.017 0.063,0.004 1.025,0.008 1.09,0.011 0.127,0.008 2.262,0.015 2.393,0.022 0.132,0.005 2.354,0.01 2.489,0.015 0.067,0.002 1.155,0.004 1.222,0.007 0.067,0 1.174,10e-4 1.242,0.002 0.137,0.001 2.474,0.003 2.611,0.004 0.033,-0.001 0.185,-0.001 0.401,-0.001 0.214,0 0.368,0 0.401,0.001 0.136,-0.001 2.474,-0.003 2.61,-0.004 0.068,-0.001 1.175,-0.002 1.242,-0.002 0.067,-0.003 1.155,-0.005 1.222,-0.007 0.134,-0.005 2.358,-0.01 2.488,-0.015 0.132,-0.007 2.267,-0.014 2.395,-0.022 0.063,-0.003 1.026,-0.007 1.089,-0.011 0.062,-0.006 0.99,-0.011 1.051,-0.017 0.123,-0.008 2.12,-0.018 2.238,-0.027 0.116,-0.011 1.982,-0.024 2.091,-0.037 0.055,-0.004 0.873,-0.009 0.926,-0.015 0.053,-0.005 0.825,-0.013 0.875,-0.019 0.184,-0.025 2.715,-0.044 3.289,-0.068 -0.118,0.567 -0.231,1.109 -0.339,1.632 H 40.62 c -0.315,0.039 -0.642,0.079 -0.979,0.117 -0.203,0.023 -0.41,0.046 -0.621,0.07 -0.179,0.02 -0.362,0.04 -0.548,0.061 -0.394,0.041 -0.8,0.083 -1.217,0.126 -0.627,0.066 -1.28,0.126 -1.955,0.187 -0.115,0.012 -0.231,0.023 -0.348,0.033 -0.568,0.049 -1.15,0.097 -1.747,0.146 -0.229,0.019 -0.46,0.037 -0.693,0.056 -0.133,0.011 -0.267,0.023 -0.402,0.033 -0.285,0.021 -0.571,0.039 -0.861,0.06 -0.088,0.006 -0.174,0.012 -0.261,0.019 -0.339,0.021 -0.682,0.043 -1.028,0.066 -0.427,0.027 -0.857,0.051 -1.291,0.078 -0.446,0.027 -0.898,0.054 -1.354,0.077 -0.898,0.045 -1.815,0.078 -2.739,0.114 -0.261,0.01 -0.522,0.022 -0.784,0.032 -0.202,0.007 -0.404,0.012 -0.607,0.019 -0.214,0.007 -0.431,0.013 -0.646,0.018 -0.247,0.005 -0.494,0.01 -0.742,0.014 -0.168,0.004 -0.338,0.007 -0.507,0.009 -0.746,0.016 -1.497,0.022 -2.246,0.032 -0.75,-0.01 -1.5,-0.016 -2.247,-0.032 -0.169,-0.002 -0.339,-0.005 -0.508,-0.009 -0.248,-0.004 -0.495,-0.009 -0.74,-0.014 -0.217,-0.005 -0.432,-0.011 -0.647,-0.018 -0.203,-0.007 -0.404,-0.012 -0.607,-0.019 -0.262,-0.01 -0.524,-0.022 -0.784,-0.032 -0.924,-0.036 -1.84,-0.069 -2.739,-0.114 C 10.316,25.056 9.864,25.029 9.417,25.002 8.984,24.975 8.553,24.951 8.127,24.924 7.781,24.901 7.439,24.879 7.099,24.858 7.011,24.851 6.925,24.845 6.838,24.839 6.549,24.818 6.261,24.8 5.977,24.779 5.842,24.769 5.708,24.757 5.574,24.746 5.341,24.727 5.111,24.709 4.881,24.69 4.286,24.641 3.702,24.593 3.135,24.544 3.018,24.534 2.902,24.523 2.787,24.511 2.113,24.45 1.46,24.39 0.834,24.324 0.416,24.281 0.008,24.239 -0.385,24.198 -0.571,24.177 -0.754,24.157 -0.933,24.137 -1.145,24.113 -1.352,24.09 -1.555,24.067 -1.892,24.029 -2.218,23.989 -2.532,23.95 h -0.002 c -0.109,-0.523 -0.221,-1.065 -0.34,-1.632 0.574,0.024 3.105,0.043 3.288,0.068 0.051,0.006 0.823,0.014 0.876,0.019 m -2.798,5.842 C -1.52,28.244 -1.539,28.242 -1.56,28.24 c 0.099,0.504 0.192,0.987 0.279,1.45 0.184,0.025 0.369,0.05 0.561,0.076 0.293,0.039 0.597,0.08 0.91,0.12 0.186,0.023 0.375,0.046 0.568,0.07 0.166,0.022 0.333,0.043 0.503,0.062 0.363,0.042 0.736,0.082 1.118,0.125 0.587,0.067 1.198,0.129 1.827,0.194 0.109,0.011 0.218,0.022 0.328,0.034 0.531,0.049 1.077,0.097 1.634,0.145 0.215,0.02 0.432,0.038 0.651,0.057 0.125,0.011 0.249,0.023 0.376,0.033 0.267,0.023 0.536,0.042 0.808,0.064 0.081,0.006 0.162,0.011 0.243,0.017 0.319,0.023 0.64,0.043 0.965,0.065 0.399,0.027 0.8,0.052 1.207,0.078 0.42,0.026 0.842,0.054 1.272,0.078 0.841,0.043 1.697,0.076 2.561,0.11 0.244,0.01 0.488,0.02 0.733,0.029 0.188,0.007 0.378,0.014 0.569,0.02 0.202,0.005 0.403,0.011 0.605,0.016 0.231,0.005 0.462,0.009 0.695,0.013 0.158,0.003 0.316,0.007 0.474,0.008 0.635,0.014 1.271,0.021 1.906,0.029 0.637,-0.008 1.273,-0.015 1.907,-0.029 0.159,-10e-4 0.318,-0.005 0.475,-0.008 0.232,-0.004 0.464,-0.008 0.695,-0.013 0.203,-0.005 0.405,-0.011 0.606,-0.016 0.19,-0.006 0.38,-0.013 0.569,-0.02 0.245,-0.009 0.488,-0.019 0.732,-0.029 0.864,-0.034 1.721,-0.067 2.562,-0.11 0.428,-0.024 0.853,-0.052 1.272,-0.078 0.406,-0.026 0.808,-0.051 1.207,-0.078 0.324,-0.022 0.645,-0.042 0.964,-0.065 0.082,-0.006 0.162,-0.011 0.245,-0.017 0.27,-0.022 0.539,-0.041 0.806,-0.064 0.126,-0.01 0.252,-0.022 0.376,-0.033 0.219,-0.019 0.436,-0.037 0.652,-0.057 0.557,-0.048 1.102,-0.096 1.634,-0.145 0.109,-0.012 0.219,-0.023 0.328,-0.034 0.628,-0.065 1.24,-0.127 1.826,-0.194 0.383,-0.043 0.757,-0.083 1.118,-0.125 0.17,-0.019 0.338,-0.04 0.503,-0.062 0.194,-0.024 0.383,-0.047 0.568,-0.07 0.313,-0.04 0.617,-0.081 0.91,-0.12 0.191,-0.026 0.378,-0.051 0.561,-0.076 0.088,-0.463 0.181,-0.946 0.28,-1.45 -0.022,0.002 -0.039,0.004 -0.052,0.007 -0.323,0.055 -2.832,0.095 -3.235,0.151 -0.101,0.012 -0.746,0.026 -0.851,0.039 -0.105,0.009 -0.787,0.02 -0.896,0.032 -0.218,0.023 -1.759,0.047 -1.991,0.071 -0.234,0.018 -1.884,0.038 -2.129,0.057 -0.122,0.01 -0.895,0.02 -1.02,0.031 -0.125,0.009 -0.927,0.015 -1.053,0.023 -0.257,0.014 -2.02,0.029 -2.283,0.045 -0.263,0.009 -2.097,0.017 -2.365,0.027 -0.134,0.005 -1.035,0.009 -1.17,0.014 -0.135,0.003 -1.049,0.003 -1.187,0.005 -0.27,0.003 -2.195,0.004 -2.468,0.008 -0.022,0 -0.055,0 -0.096,-0.001 C 19.195,28.75 19.161,28.75 19.14,28.75 18.866,28.746 16.942,28.745 16.671,28.742 16.534,28.74 15.619,28.74 15.484,28.737 15.349,28.732 14.45,28.728 14.315,28.723 14.046,28.713 12.212,28.705 11.948,28.696 11.686,28.68 9.924,28.665 9.668,28.651 9.54,28.643 8.739,28.637 8.613,28.628 8.489,28.617 7.716,28.607 7.593,28.597 7.347,28.578 5.698,28.558 5.465,28.54 5.233,28.516 3.692,28.492 3.473,28.469 3.364,28.457 2.684,28.446 2.577,28.437 2.472,28.424 1.828,28.41 1.726,28.398 1.324,28.342 -1.187,28.302 -1.508,28.247"
         id="path3386" />
    </g>
    <path
       inkscape:connector-curvature="0"
       style="fill:#1d2951;fill-opacity:1;stroke-width:0.82893002"
       d="M 208.57705,249.30694 H 388.59577 V 369.31943 H 208.57705 Z"
       id="path3388" />
    <g
       transform="matrix(4.3020638,0,0,-4.3020638,294.7609,275.45139)"
       id="g3390">
      <path
         inkscape:connector-curvature="0"
         style="fill:#ffcc00;fill-opacity:1"
         d="M 0,0 0.882,0.645 1.765,0 1.429,1.041 2.325,1.685 H 1.22 L 0.882,2.74 0.545,1.685 H -0.562 L 0.334,1.041 Z"
         id="path3392" />
    </g>
    <g
       transform="matrix(4.3020638,0,0,-4.3020638,275.09868,280.73168)"
       id="g3394">
      <path
         inkscape:connector-curvature="0"
         style="fill:#ffcc00;fill-opacity:1"
         d="M 0,0 0.884,0.644 1.765,0 1.43,1.042 2.325,1.687 H 1.22 L 0.883,2.742 0.545,1.684 -0.561,1.687 0.335,1.042 Z"
         id="path3396" />
    </g>
    <g
       transform="matrix(4.3020638,0,0,-4.3020638,264.51324,283.3511)"
       id="g3398">
      <path
         inkscape:connector-curvature="0"
         style="fill:#ffcc00;fill-opacity:1"
         d="M 0,0 -0.339,-1.056 -1.443,-1.055 -0.547,-1.7 -0.884,-2.742 0,-2.098 0.883,-2.742 0.547,-1.7 1.442,-1.055 H 0.338 Z"
         id="path3400" />
    </g>
    <g
       transform="matrix(4.3020638,0,0,-4.3020638,259.24125,312.00721)"
       id="g3402">
      <path
         inkscape:connector-curvature="0"
         style="fill:#ffcc00;fill-opacity:1"
         d="M 0,0 0.882,-0.645 0.546,0.398 1.443,1.042 H 0.339 L 0,2.098 -0.338,1.039 -1.444,1.042 -0.546,0.398 -0.883,-0.645 Z"
         id="path3404" />
    </g>
    <g
       transform="matrix(4.3020638,0,0,-4.3020638,265.97216,327.21807)"
       id="g3406">
      <path
         inkscape:connector-curvature="0"
         style="fill:#ffcc00;fill-opacity:1"
         d="M 0,0 -0.338,1.056 -0.677,0 H -1.781 L -0.885,-0.643 -1.222,-1.685 -0.338,-1.04 0.545,-1.685 0.209,-0.643 1.104,0 Z"
         id="path3408" />
    </g>
    <g
       transform="matrix(4.3020638,0,0,-4.3020638,280.37896,341.63317)"
       id="g3410">
      <path
         inkscape:connector-curvature="0"
         style="fill:#ffcc00;fill-opacity:1"
         d="M 0,0 -0.338,1.055 -0.676,-0.001 -1.78,0 -0.885,-0.644 -1.22,-1.686 -0.338,-1.041 0.545,-1.686 0.208,-0.644 1.105,0 Z"
         id="path3412" />
    </g>
    <g
       transform="matrix(4.3020638,0,0,-4.3020638,300.00802,346.84714)"
       id="g3414">
      <path
         inkscape:connector-curvature="0"
         style="fill:#ffcc00;fill-opacity:1"
         d="M 0,0 -0.337,1.055 -0.676,-0.001 -1.781,0 -0.884,-0.646 -1.22,-1.686 -0.337,-1.043 0.545,-1.686 0.209,-0.646 1.107,0 Z"
         id="path3416" />
    </g>
    <g
       transform="matrix(4.3020638,0,0,-4.3020638,319.64538,341.63317)"
       id="g3418">
      <path
         inkscape:connector-curvature="0"
         style="fill:#ffcc00;fill-opacity:1"
         d="M 0,0 -0.338,1.055 -0.677,-0.001 -1.78,0 -0.886,-0.644 -1.222,-1.686 -0.338,-1.041 0.545,-1.686 0.208,-0.644 1.106,0 Z"
         id="path3420" />
    </g>
    <g
       transform="matrix(4.3020638,0,0,-4.3020638,334.06047,327.21807)"
       id="g3422">
      <path
         inkscape:connector-curvature="0"
         style="fill:#ffcc00;fill-opacity:1"
         d="M 0,0 -0.34,1.056 -0.679,0 H -1.782 L -0.886,-0.643 -1.222,-1.685 -0.34,-1.04 0.544,-1.685 0.207,-0.643 1.104,0 Z"
         id="path3424" />
    </g>
    <g
       transform="matrix(4.3020638,0,0,-4.3020638,344.0325,307.47296)"
       id="g3426">
      <path
         inkscape:connector-curvature="0"
         style="fill:#ffcc00;fill-opacity:1"
         d="M 0,0 H -1.105 L -1.444,1.056 -1.782,0 h -1.105 l 0.896,-0.643 -0.335,-1.044 0.882,0.647 0.883,-0.647 -0.336,1.044 z"
         id="path3428" />
    </g>
    <g
       transform="matrix(4.3020638,0,0,-4.3020638,328.80505,295.08875)"
       id="g3430">
      <path
         inkscape:connector-curvature="0"
         style="fill:#ffcc00;fill-opacity:1"
         d="M 0,0 0.882,0.645 1.765,0 1.429,1.042 2.326,1.683 H 1.222 L 0.882,2.74 0.544,1.683 H -0.56 L 0.336,1.042 Z"
         id="path3432" />
    </g>
    <g
       transform="matrix(4.3020638,0,0,-4.3020638,318.24448,268.936)"
       id="g3434">
      <path
         inkscape:connector-curvature="0"
         style="fill:#ffcc00;fill-opacity:1"
         d="m 0,0 -0.337,-1.058 -1.106,0.004 0.895,-0.647 -0.334,-1.042 0.883,0.646 0.883,-0.646 -0.337,1.042 0.896,0.647 H 0.338 Z"
         id="path3436" />
    </g>
  </g>
</svg>
