<?xml version="1.0" encoding="UTF-8" standalone="no"?>
<svg xmlns:svg="http://www.w3.org/2000/svg"
xmlns="http://www.w3.org/2000/svg" version="1.1"
width="360.0" height="161.0">
<!-- Created with the Wikimedia westminster parliament diagram creator (http://tools.wmflabs.org/parliamentdiagram/westminsterinputform.html) -->
<g id="diagram">
  <g id="headbench">
  <g style="fill:#AAAAAA" id="Speaker">
    <rect x="5.3431" y="77.4020" rx="0.00" ry="0.00" width="6.18" height="6.18"/>
  </g>
  </g>
  <g id="leftbench">
  <g style="fill:#EA302E" id="Leftist Reformist">
    <rect x="12.2059" y="67.1078" rx="0.00" ry="0.00" width="6.18" height="6.18"/>
    <rect x="12.2059" y="60.2451" rx="0.00" ry="0.00" width="6.18" height="6.18"/>
    <rect x="12.2059" y="53.3824" rx="0.00" ry="0.00" width="6.18" height="6.18"/>
    <rect x="12.2059" y="46.5196" rx="0.00" ry="0.00" width="6.18" height="6.18"/>
    <rect x="12.2059" y="39.6569" rx="0.00" ry="0.00" width="6.18" height="6.18"/>
    <rect x="12.2059" y="32.7941" rx="0.00" ry="0.00" width="6.18" height="6.18"/>
    <rect x="12.2059" y="25.9314" rx="0.00" ry="0.00" width="6.18" height="6.18"/>
    <rect x="12.2059" y="19.0686" rx="0.00" ry="0.00" width="6.18" height="6.18"/>
    <rect x="12.2059" y="12.2059" rx="0.00" ry="0.00" width="6.18" height="6.18"/>
    <rect x="12.2059" y="5.3431" rx="0.00" ry="0.00" width="6.18" height="6.18"/>
    <rect x="19.0686" y="67.1078" rx="0.00" ry="0.00" width="6.18" height="6.18"/>
    <rect x="19.0686" y="60.2451" rx="0.00" ry="0.00" width="6.18" height="6.18"/>
    <rect x="19.0686" y="53.3824" rx="0.00" ry="0.00" width="6.18" height="6.18"/>
    <rect x="19.0686" y="46.5196" rx="0.00" ry="0.00" width="6.18" height="6.18"/>
    <rect x="19.0686" y="39.6569" rx="0.00" ry="0.00" width="6.18" height="6.18"/>
    <rect x="19.0686" y="32.7941" rx="0.00" ry="0.00" width="6.18" height="6.18"/>
    <rect x="19.0686" y="25.9314" rx="0.00" ry="0.00" width="6.18" height="6.18"/>
    <rect x="19.0686" y="19.0686" rx="0.00" ry="0.00" width="6.18" height="6.18"/>
    <rect x="19.0686" y="12.2059" rx="0.00" ry="0.00" width="6.18" height="6.18"/>
    <rect x="19.0686" y="5.3431" rx="0.00" ry="0.00" width="6.18" height="6.18"/>
    <rect x="25.9314" y="67.1078" rx="0.00" ry="0.00" width="6.18" height="6.18"/>
    <rect x="25.9314" y="60.2451" rx="0.00" ry="0.00" width="6.18" height="6.18"/>
    <rect x="25.9314" y="53.3824" rx="0.00" ry="0.00" width="6.18" height="6.18"/>
    <rect x="25.9314" y="46.5196" rx="0.00" ry="0.00" width="6.18" height="6.18"/>
    <rect x="25.9314" y="39.6569" rx="0.00" ry="0.00" width="6.18" height="6.18"/>
    <rect x="25.9314" y="32.7941" rx="0.00" ry="0.00" width="6.18" height="6.18"/>
    <rect x="25.9314" y="25.9314" rx="0.00" ry="0.00" width="6.18" height="6.18"/>
    <rect x="25.9314" y="19.0686" rx="0.00" ry="0.00" width="6.18" height="6.18"/>
    <rect x="25.9314" y="12.2059" rx="0.00" ry="0.00" width="6.18" height="6.18"/>
    <rect x="25.9314" y="5.3431" rx="0.00" ry="0.00" width="6.18" height="6.18"/>
    <rect x="32.7941" y="67.1078" rx="0.00" ry="0.00" width="6.18" height="6.18"/>
    <rect x="32.7941" y="60.2451" rx="0.00" ry="0.00" width="6.18" height="6.18"/>
    <rect x="32.7941" y="53.3824" rx="0.00" ry="0.00" width="6.18" height="6.18"/>
    <rect x="32.7941" y="46.5196" rx="0.00" ry="0.00" width="6.18" height="6.18"/>
    <rect x="32.7941" y="39.6569" rx="0.00" ry="0.00" width="6.18" height="6.18"/>
    <rect x="32.7941" y="32.7941" rx="0.00" ry="0.00" width="6.18" height="6.18"/>
    <rect x="32.7941" y="25.9314" rx="0.00" ry="0.00" width="6.18" height="6.18"/>
    <rect x="32.7941" y="19.0686" rx="0.00" ry="0.00" width="6.18" height="6.18"/>
    <rect x="32.7941" y="12.2059" rx="0.00" ry="0.00" width="6.18" height="6.18"/>
    <rect x="32.7941" y="5.3431" rx="0.00" ry="0.00" width="6.18" height="6.18"/>
    <rect x="39.6569" y="67.1078" rx="0.00" ry="0.00" width="6.18" height="6.18"/>
    <rect x="39.6569" y="60.2451" rx="0.00" ry="0.00" width="6.18" height="6.18"/>
    <rect x="39.6569" y="53.3824" rx="0.00" ry="0.00" width="6.18" height="6.18"/>
    <rect x="39.6569" y="46.5196" rx="0.00" ry="0.00" width="6.18" height="6.18"/>
    <rect x="39.6569" y="39.6569" rx="0.00" ry="0.00" width="6.18" height="6.18"/>
    <rect x="39.6569" y="32.7941" rx="0.00" ry="0.00" width="6.18" height="6.18"/>
    <rect x="39.6569" y="25.9314" rx="0.00" ry="0.00" width="6.18" height="6.18"/>
    <rect x="39.6569" y="19.0686" rx="0.00" ry="0.00" width="6.18" height="6.18"/>
    <rect x="39.6569" y="12.2059" rx="0.00" ry="0.00" width="6.18" height="6.18"/>
    <rect x="39.6569" y="5.3431" rx="0.00" ry="0.00" width="6.18" height="6.18"/>
    <rect x="46.5196" y="67.1078" rx="0.00" ry="0.00" width="6.18" height="6.18"/>
    <rect x="46.5196" y="60.2451" rx="0.00" ry="0.00" width="6.18" height="6.18"/>
    <rect x="46.5196" y="53.3824" rx="0.00" ry="0.00" width="6.18" height="6.18"/>
    <rect x="46.5196" y="46.5196" rx="0.00" ry="0.00" width="6.18" height="6.18"/>
    <rect x="46.5196" y="39.6569" rx="0.00" ry="0.00" width="6.18" height="6.18"/>
    <rect x="46.5196" y="32.7941" rx="0.00" ry="0.00" width="6.18" height="6.18"/>
    <rect x="46.5196" y="25.9314" rx="0.00" ry="0.00" width="6.18" height="6.18"/>
    <rect x="46.5196" y="19.0686" rx="0.00" ry="0.00" width="6.18" height="6.18"/>
    <rect x="46.5196" y="12.2059" rx="0.00" ry="0.00" width="6.18" height="6.18"/>
    <rect x="46.5196" y="5.3431" rx="0.00" ry="0.00" width="6.18" height="6.18"/>
    <rect x="53.3824" y="67.1078" rx="0.00" ry="0.00" width="6.18" height="6.18"/>
    <rect x="53.3824" y="60.2451" rx="0.00" ry="0.00" width="6.18" height="6.18"/>
    <rect x="53.3824" y="53.3824" rx="0.00" ry="0.00" width="6.18" height="6.18"/>
    <rect x="53.3824" y="46.5196" rx="0.00" ry="0.00" width="6.18" height="6.18"/>
    <rect x="53.3824" y="39.6569" rx="0.00" ry="0.00" width="6.18" height="6.18"/>
    <rect x="53.3824" y="32.7941" rx="0.00" ry="0.00" width="6.18" height="6.18"/>
    <rect x="53.3824" y="25.9314" rx="0.00" ry="0.00" width="6.18" height="6.18"/>
    <rect x="53.3824" y="19.0686" rx="0.00" ry="0.00" width="6.18" height="6.18"/>
    <rect x="53.3824" y="12.2059" rx="0.00" ry="0.00" width="6.18" height="6.18"/>
    <rect x="53.3824" y="5.3431" rx="0.00" ry="0.00" width="6.18" height="6.18"/>
    <rect x="60.2451" y="67.1078" rx="0.00" ry="0.00" width="6.18" height="6.18"/>
    <rect x="60.2451" y="60.2451" rx="0.00" ry="0.00" width="6.18" height="6.18"/>
    <rect x="60.2451" y="53.3824" rx="0.00" ry="0.00" width="6.18" height="6.18"/>
    <rect x="60.2451" y="46.5196" rx="0.00" ry="0.00" width="6.18" height="6.18"/>
    <rect x="60.2451" y="39.6569" rx="0.00" ry="0.00" width="6.18" height="6.18"/>
    <rect x="60.2451" y="32.7941" rx="0.00" ry="0.00" width="6.18" height="6.18"/>
    <rect x="60.2451" y="25.9314" rx="0.00" ry="0.00" width="6.18" height="6.18"/>
    <rect x="60.2451" y="19.0686" rx="0.00" ry="0.00" width="6.18" height="6.18"/>
    <rect x="60.2451" y="12.2059" rx="0.00" ry="0.00" width="6.18" height="6.18"/>
    <rect x="60.2451" y="5.3431" rx="0.00" ry="0.00" width="6.18" height="6.18"/>
    <rect x="67.1078" y="67.1078" rx="0.00" ry="0.00" width="6.18" height="6.18"/>
    <rect x="67.1078" y="60.2451" rx="0.00" ry="0.00" width="6.18" height="6.18"/>
    <rect x="67.1078" y="53.3824" rx="0.00" ry="0.00" width="6.18" height="6.18"/>
    <rect x="67.1078" y="46.5196" rx="0.00" ry="0.00" width="6.18" height="6.18"/>
    <rect x="67.1078" y="39.6569" rx="0.00" ry="0.00" width="6.18" height="6.18"/>
    <rect x="67.1078" y="32.7941" rx="0.00" ry="0.00" width="6.18" height="6.18"/>
    <rect x="67.1078" y="25.9314" rx="0.00" ry="0.00" width="6.18" height="6.18"/>
    <rect x="67.1078" y="19.0686" rx="0.00" ry="0.00" width="6.18" height="6.18"/>
    <rect x="67.1078" y="12.2059" rx="0.00" ry="0.00" width="6.18" height="6.18"/>
    <rect x="67.1078" y="5.3431" rx="0.00" ry="0.00" width="6.18" height="6.18"/>
    <rect x="73.9706" y="67.1078" rx="0.00" ry="0.00" width="6.18" height="6.18"/>
    <rect x="73.9706" y="60.2451" rx="0.00" ry="0.00" width="6.18" height="6.18"/>
    <rect x="73.9706" y="53.3824" rx="0.00" ry="0.00" width="6.18" height="6.18"/>
    <rect x="73.9706" y="46.5196" rx="0.00" ry="0.00" width="6.18" height="6.18"/>
    <rect x="73.9706" y="39.6569" rx="0.00" ry="0.00" width="6.18" height="6.18"/>
    <rect x="73.9706" y="32.7941" rx="0.00" ry="0.00" width="6.18" height="6.18"/>
    <rect x="73.9706" y="25.9314" rx="0.00" ry="0.00" width="6.18" height="6.18"/>
    <rect x="73.9706" y="19.0686" rx="0.00" ry="0.00" width="6.18" height="6.18"/>
    <rect x="73.9706" y="12.2059" rx="0.00" ry="0.00" width="6.18" height="6.18"/>
    <rect x="73.9706" y="5.3431" rx="0.00" ry="0.00" width="6.18" height="6.18"/>
    <rect x="80.8333" y="67.1078" rx="0.00" ry="0.00" width="6.18" height="6.18"/>
    <rect x="80.8333" y="60.2451" rx="0.00" ry="0.00" width="6.18" height="6.18"/>
    <rect x="80.8333" y="53.3824" rx="0.00" ry="0.00" width="6.18" height="6.18"/>
    <rect x="80.8333" y="46.5196" rx="0.00" ry="0.00" width="6.18" height="6.18"/>
    <rect x="80.8333" y="39.6569" rx="0.00" ry="0.00" width="6.18" height="6.18"/>
    <rect x="80.8333" y="32.7941" rx="0.00" ry="0.00" width="6.18" height="6.18"/>
  </g>
  <g style="fill:#2D5CA9" id="Volksparteit">
    <rect x="80.8333" y="25.9314" rx="0.00" ry="0.00" width="6.18" height="6.18"/>
    <rect x="80.8333" y="19.0686" rx="0.00" ry="0.00" width="6.18" height="6.18"/>
    <rect x="80.8333" y="12.2059" rx="0.00" ry="0.00" width="6.18" height="6.18"/>
    <rect x="80.8333" y="5.3431" rx="0.00" ry="0.00" width="6.18" height="6.18"/>
    <rect x="87.6961" y="67.1078" rx="0.00" ry="0.00" width="6.18" height="6.18"/>
    <rect x="87.6961" y="60.2451" rx="0.00" ry="0.00" width="6.18" height="6.18"/>
    <rect x="87.6961" y="53.3824" rx="0.00" ry="0.00" width="6.18" height="6.18"/>
    <rect x="87.6961" y="46.5196" rx="0.00" ry="0.00" width="6.18" height="6.18"/>
    <rect x="87.6961" y="39.6569" rx="0.00" ry="0.00" width="6.18" height="6.18"/>
    <rect x="87.6961" y="32.7941" rx="0.00" ry="0.00" width="6.18" height="6.18"/>
    <rect x="87.6961" y="25.9314" rx="0.00" ry="0.00" width="6.18" height="6.18"/>
    <rect x="87.6961" y="19.0686" rx="0.00" ry="0.00" width="6.18" height="6.18"/>
    <rect x="87.6961" y="12.2059" rx="0.00" ry="0.00" width="6.18" height="6.18"/>
    <rect x="87.6961" y="5.3431" rx="0.00" ry="0.00" width="6.18" height="6.18"/>
    <rect x="94.5588" y="67.1078" rx="0.00" ry="0.00" width="6.18" height="6.18"/>
    <rect x="94.5588" y="60.2451" rx="0.00" ry="0.00" width="6.18" height="6.18"/>
    <rect x="94.5588" y="53.3824" rx="0.00" ry="0.00" width="6.18" height="6.18"/>
    <rect x="94.5588" y="46.5196" rx="0.00" ry="0.00" width="6.18" height="6.18"/>
    <rect x="94.5588" y="39.6569" rx="0.00" ry="0.00" width="6.18" height="6.18"/>
    <rect x="94.5588" y="32.7941" rx="0.00" ry="0.00" width="6.18" height="6.18"/>
    <rect x="94.5588" y="25.9314" rx="0.00" ry="0.00" width="6.18" height="6.18"/>
    <rect x="94.5588" y="19.0686" rx="0.00" ry="0.00" width="6.18" height="6.18"/>
    <rect x="94.5588" y="12.2059" rx="0.00" ry="0.00" width="6.18" height="6.18"/>
    <rect x="94.5588" y="5.3431" rx="0.00" ry="0.00" width="6.18" height="6.18"/>
    <rect x="101.4216" y="67.1078" rx="0.00" ry="0.00" width="6.18" height="6.18"/>
    <rect x="101.4216" y="60.2451" rx="0.00" ry="0.00" width="6.18" height="6.18"/>
    <rect x="101.4216" y="53.3824" rx="0.00" ry="0.00" width="6.18" height="6.18"/>
    <rect x="101.4216" y="46.5196" rx="0.00" ry="0.00" width="6.18" height="6.18"/>
    <rect x="101.4216" y="39.6569" rx="0.00" ry="0.00" width="6.18" height="6.18"/>
  </g>
  </g>
  <g id="rightbench">
  <g style="fill:#FFCC08" id="New Liberals">
    <rect x="12.2059" y="87.6961" rx="0.00" ry="0.00" width="6.18" height="6.18"/>
    <rect x="12.2059" y="94.5588" rx="0.00" ry="0.00" width="6.18" height="6.18"/>
    <rect x="12.2059" y="101.4216" rx="0.00" ry="0.00" width="6.18" height="6.18"/>
    <rect x="12.2059" y="108.2843" rx="0.00" ry="0.00" width="6.18" height="6.18"/>
    <rect x="12.2059" y="115.1471" rx="0.00" ry="0.00" width="6.18" height="6.18"/>
    <rect x="12.2059" y="122.0098" rx="0.00" ry="0.00" width="6.18" height="6.18"/>
    <rect x="12.2059" y="128.8725" rx="0.00" ry="0.00" width="6.18" height="6.18"/>
    <rect x="12.2059" y="135.7353" rx="0.00" ry="0.00" width="6.18" height="6.18"/>
    <rect x="12.2059" y="142.5980" rx="0.00" ry="0.00" width="6.18" height="6.18"/>
    <rect x="12.2059" y="149.4608" rx="0.00" ry="0.00" width="6.18" height="6.18"/>
    <rect x="19.0686" y="87.6961" rx="0.00" ry="0.00" width="6.18" height="6.18"/>
    <rect x="19.0686" y="94.5588" rx="0.00" ry="0.00" width="6.18" height="6.18"/>
    <rect x="19.0686" y="101.4216" rx="0.00" ry="0.00" width="6.18" height="6.18"/>
    <rect x="19.0686" y="108.2843" rx="0.00" ry="0.00" width="6.18" height="6.18"/>
    <rect x="19.0686" y="115.1471" rx="0.00" ry="0.00" width="6.18" height="6.18"/>
    <rect x="19.0686" y="122.0098" rx="0.00" ry="0.00" width="6.18" height="6.18"/>
    <rect x="19.0686" y="128.8725" rx="0.00" ry="0.00" width="6.18" height="6.18"/>
    <rect x="19.0686" y="135.7353" rx="0.00" ry="0.00" width="6.18" height="6.18"/>
    <rect x="19.0686" y="142.5980" rx="0.00" ry="0.00" width="6.18" height="6.18"/>
    <rect x="19.0686" y="149.4608" rx="0.00" ry="0.00" width="6.18" height="6.18"/>
    <rect x="25.9314" y="87.6961" rx="0.00" ry="0.00" width="6.18" height="6.18"/>
    <rect x="25.9314" y="94.5588" rx="0.00" ry="0.00" width="6.18" height="6.18"/>
    <rect x="25.9314" y="101.4216" rx="0.00" ry="0.00" width="6.18" height="6.18"/>
    <rect x="25.9314" y="108.2843" rx="0.00" ry="0.00" width="6.18" height="6.18"/>
    <rect x="25.9314" y="115.1471" rx="0.00" ry="0.00" width="6.18" height="6.18"/>
    <rect x="25.9314" y="122.0098" rx="0.00" ry="0.00" width="6.18" height="6.18"/>
    <rect x="25.9314" y="128.8725" rx="0.00" ry="0.00" width="6.18" height="6.18"/>
    <rect x="25.9314" y="135.7353" rx="0.00" ry="0.00" width="6.18" height="6.18"/>
    <rect x="25.9314" y="142.5980" rx="0.00" ry="0.00" width="6.18" height="6.18"/>
    <rect x="25.9314" y="149.4608" rx="0.00" ry="0.00" width="6.18" height="6.18"/>
    <rect x="32.7941" y="87.6961" rx="0.00" ry="0.00" width="6.18" height="6.18"/>
    <rect x="32.7941" y="94.5588" rx="0.00" ry="0.00" width="6.18" height="6.18"/>
    <rect x="32.7941" y="101.4216" rx="0.00" ry="0.00" width="6.18" height="6.18"/>
    <rect x="32.7941" y="108.2843" rx="0.00" ry="0.00" width="6.18" height="6.18"/>
    <rect x="32.7941" y="115.1471" rx="0.00" ry="0.00" width="6.18" height="6.18"/>
    <rect x="32.7941" y="122.0098" rx="0.00" ry="0.00" width="6.18" height="6.18"/>
    <rect x="32.7941" y="128.8725" rx="0.00" ry="0.00" width="6.18" height="6.18"/>
    <rect x="32.7941" y="135.7353" rx="0.00" ry="0.00" width="6.18" height="6.18"/>
    <rect x="32.7941" y="142.5980" rx="0.00" ry="0.00" width="6.18" height="6.18"/>
    <rect x="32.7941" y="149.4608" rx="0.00" ry="0.00" width="6.18" height="6.18"/>
    <rect x="39.6569" y="87.6961" rx="0.00" ry="0.00" width="6.18" height="6.18"/>
    <rect x="39.6569" y="94.5588" rx="0.00" ry="0.00" width="6.18" height="6.18"/>
    <rect x="39.6569" y="101.4216" rx="0.00" ry="0.00" width="6.18" height="6.18"/>
    <rect x="39.6569" y="108.2843" rx="0.00" ry="0.00" width="6.18" height="6.18"/>
    <rect x="39.6569" y="115.1471" rx="0.00" ry="0.00" width="6.18" height="6.18"/>
    <rect x="39.6569" y="122.0098" rx="0.00" ry="0.00" width="6.18" height="6.18"/>
    <rect x="39.6569" y="128.8725" rx="0.00" ry="0.00" width="6.18" height="6.18"/>
    <rect x="39.6569" y="135.7353" rx="0.00" ry="0.00" width="6.18" height="6.18"/>
    <rect x="39.6569" y="142.5980" rx="0.00" ry="0.00" width="6.18" height="6.18"/>
    <rect x="39.6569" y="149.4608" rx="0.00" ry="0.00" width="6.18" height="6.18"/>
    <rect x="46.5196" y="87.6961" rx="0.00" ry="0.00" width="6.18" height="6.18"/>
    <rect x="46.5196" y="94.5588" rx="0.00" ry="0.00" width="6.18" height="6.18"/>
    <rect x="46.5196" y="101.4216" rx="0.00" ry="0.00" width="6.18" height="6.18"/>
    <rect x="46.5196" y="108.2843" rx="0.00" ry="0.00" width="6.18" height="6.18"/>
    <rect x="46.5196" y="115.1471" rx="0.00" ry="0.00" width="6.18" height="6.18"/>
    <rect x="46.5196" y="122.0098" rx="0.00" ry="0.00" width="6.18" height="6.18"/>
    <rect x="46.5196" y="128.8725" rx="0.00" ry="0.00" width="6.18" height="6.18"/>
    <rect x="46.5196" y="135.7353" rx="0.00" ry="0.00" width="6.18" height="6.18"/>
    <rect x="46.5196" y="142.5980" rx="0.00" ry="0.00" width="6.18" height="6.18"/>
    <rect x="46.5196" y="149.4608" rx="0.00" ry="0.00" width="6.18" height="6.18"/>
    <rect x="53.3824" y="87.6961" rx="0.00" ry="0.00" width="6.18" height="6.18"/>
    <rect x="53.3824" y="94.5588" rx="0.00" ry="0.00" width="6.18" height="6.18"/>
    <rect x="53.3824" y="101.4216" rx="0.00" ry="0.00" width="6.18" height="6.18"/>
    <rect x="53.3824" y="108.2843" rx="0.00" ry="0.00" width="6.18" height="6.18"/>
    <rect x="53.3824" y="115.1471" rx="0.00" ry="0.00" width="6.18" height="6.18"/>
    <rect x="53.3824" y="122.0098" rx="0.00" ry="0.00" width="6.18" height="6.18"/>
    <rect x="53.3824" y="128.8725" rx="0.00" ry="0.00" width="6.18" height="6.18"/>
    <rect x="53.3824" y="135.7353" rx="0.00" ry="0.00" width="6.18" height="6.18"/>
    <rect x="53.3824" y="142.5980" rx="0.00" ry="0.00" width="6.18" height="6.18"/>
    <rect x="53.3824" y="149.4608" rx="0.00" ry="0.00" width="6.18" height="6.18"/>
    <rect x="60.2451" y="87.6961" rx="0.00" ry="0.00" width="6.18" height="6.18"/>
    <rect x="60.2451" y="94.5588" rx="0.00" ry="0.00" width="6.18" height="6.18"/>
    <rect x="60.2451" y="101.4216" rx="0.00" ry="0.00" width="6.18" height="6.18"/>
    <rect x="60.2451" y="108.2843" rx="0.00" ry="0.00" width="6.18" height="6.18"/>
    <rect x="60.2451" y="115.1471" rx="0.00" ry="0.00" width="6.18" height="6.18"/>
    <rect x="60.2451" y="122.0098" rx="0.00" ry="0.00" width="6.18" height="6.18"/>
    <rect x="60.2451" y="128.8725" rx="0.00" ry="0.00" width="6.18" height="6.18"/>
    <rect x="60.2451" y="135.7353" rx="0.00" ry="0.00" width="6.18" height="6.18"/>
    <rect x="60.2451" y="142.5980" rx="0.00" ry="0.00" width="6.18" height="6.18"/>
    <rect x="60.2451" y="149.4608" rx="0.00" ry="0.00" width="6.18" height="6.18"/>
    <rect x="67.1078" y="87.6961" rx="0.00" ry="0.00" width="6.18" height="6.18"/>
    <rect x="67.1078" y="94.5588" rx="0.00" ry="0.00" width="6.18" height="6.18"/>
    <rect x="67.1078" y="101.4216" rx="0.00" ry="0.00" width="6.18" height="6.18"/>
    <rect x="67.1078" y="108.2843" rx="0.00" ry="0.00" width="6.18" height="6.18"/>
    <rect x="67.1078" y="115.1471" rx="0.00" ry="0.00" width="6.18" height="6.18"/>
    <rect x="67.1078" y="122.0098" rx="0.00" ry="0.00" width="6.18" height="6.18"/>
    <rect x="67.1078" y="128.8725" rx="0.00" ry="0.00" width="6.18" height="6.18"/>
    <rect x="67.1078" y="135.7353" rx="0.00" ry="0.00" width="6.18" height="6.18"/>
    <rect x="67.1078" y="142.5980" rx="0.00" ry="0.00" width="6.18" height="6.18"/>
    <rect x="67.1078" y="149.4608" rx="0.00" ry="0.00" width="6.18" height="6.18"/>
    <rect x="73.9706" y="87.6961" rx="0.00" ry="0.00" width="6.18" height="6.18"/>
    <rect x="73.9706" y="94.5588" rx="0.00" ry="0.00" width="6.18" height="6.18"/>
    <rect x="73.9706" y="101.4216" rx="0.00" ry="0.00" width="6.18" height="6.18"/>
    <rect x="73.9706" y="108.2843" rx="0.00" ry="0.00" width="6.18" height="6.18"/>
    <rect x="73.9706" y="115.1471" rx="0.00" ry="0.00" width="6.18" height="6.18"/>
    <rect x="73.9706" y="122.0098" rx="0.00" ry="0.00" width="6.18" height="6.18"/>
    <rect x="73.9706" y="128.8725" rx="0.00" ry="0.00" width="6.18" height="6.18"/>
    <rect x="73.9706" y="135.7353" rx="0.00" ry="0.00" width="6.18" height="6.18"/>
    <rect x="73.9706" y="142.5980" rx="0.00" ry="0.00" width="6.18" height="6.18"/>
    <rect x="73.9706" y="149.4608" rx="0.00" ry="0.00" width="6.18" height="6.18"/>
    <rect x="80.8333" y="87.6961" rx="0.00" ry="0.00" width="6.18" height="6.18"/>
    <rect x="80.8333" y="94.5588" rx="0.00" ry="0.00" width="6.18" height="6.18"/>
    <rect x="80.8333" y="101.4216" rx="0.00" ry="0.00" width="6.18" height="6.18"/>
    <rect x="80.8333" y="108.2843" rx="0.00" ry="0.00" width="6.18" height="6.18"/>
    <rect x="80.8333" y="115.1471" rx="0.00" ry="0.00" width="6.18" height="6.18"/>
    <rect x="80.8333" y="122.0098" rx="0.00" ry="0.00" width="6.18" height="6.18"/>
    <rect x="80.8333" y="128.8725" rx="0.00" ry="0.00" width="6.18" height="6.18"/>
    <rect x="80.8333" y="135.7353" rx="0.00" ry="0.00" width="6.18" height="6.18"/>
    <rect x="80.8333" y="142.5980" rx="0.00" ry="0.00" width="6.18" height="6.18"/>
    <rect x="80.8333" y="149.4608" rx="0.00" ry="0.00" width="6.18" height="6.18"/>
    <rect x="87.6961" y="87.6961" rx="0.00" ry="0.00" width="6.18" height="6.18"/>
    <rect x="87.6961" y="94.5588" rx="0.00" ry="0.00" width="6.18" height="6.18"/>
    <rect x="87.6961" y="101.4216" rx="0.00" ry="0.00" width="6.18" height="6.18"/>
    <rect x="87.6961" y="108.2843" rx="0.00" ry="0.00" width="6.18" height="6.18"/>
    <rect x="87.6961" y="115.1471" rx="0.00" ry="0.00" width="6.18" height="6.18"/>
    <rect x="87.6961" y="122.0098" rx="0.00" ry="0.00" width="6.18" height="6.18"/>
    <rect x="87.6961" y="128.8725" rx="0.00" ry="0.00" width="6.18" height="6.18"/>
    <rect x="87.6961" y="135.7353" rx="0.00" ry="0.00" width="6.18" height="6.18"/>
    <rect x="87.6961" y="142.5980" rx="0.00" ry="0.00" width="6.18" height="6.18"/>
    <rect x="87.6961" y="149.4608" rx="0.00" ry="0.00" width="6.18" height="6.18"/>
    <rect x="94.5588" y="87.6961" rx="0.00" ry="0.00" width="6.18" height="6.18"/>
    <rect x="94.5588" y="94.5588" rx="0.00" ry="0.00" width="6.18" height="6.18"/>
    <rect x="94.5588" y="101.4216" rx="0.00" ry="0.00" width="6.18" height="6.18"/>
    <rect x="94.5588" y="108.2843" rx="0.00" ry="0.00" width="6.18" height="6.18"/>
    <rect x="94.5588" y="115.1471" rx="0.00" ry="0.00" width="6.18" height="6.18"/>
    <rect x="94.5588" y="122.0098" rx="0.00" ry="0.00" width="6.18" height="6.18"/>
    <rect x="94.5588" y="128.8725" rx="0.00" ry="0.00" width="6.18" height="6.18"/>
    <rect x="94.5588" y="135.7353" rx="0.00" ry="0.00" width="6.18" height="6.18"/>
    <rect x="94.5588" y="142.5980" rx="0.00" ry="0.00" width="6.18" height="6.18"/>
    <rect x="94.5588" y="149.4608" rx="0.00" ry="0.00" width="6.18" height="6.18"/>
    <rect x="101.4216" y="87.6961" rx="0.00" ry="0.00" width="6.18" height="6.18"/>
    <rect x="101.4216" y="94.5588" rx="0.00" ry="0.00" width="6.18" height="6.18"/>
    <rect x="101.4216" y="101.4216" rx="0.00" ry="0.00" width="6.18" height="6.18"/>
    <rect x="101.4216" y="108.2843" rx="0.00" ry="0.00" width="6.18" height="6.18"/>
    <rect x="101.4216" y="115.1471" rx="0.00" ry="0.00" width="6.18" height="6.18"/>
    <rect x="101.4216" y="122.0098" rx="0.00" ry="0.00" width="6.18" height="6.18"/>
    <rect x="101.4216" y="128.8725" rx="0.00" ry="0.00" width="6.18" height="6.18"/>
    <rect x="101.4216" y="135.7353" rx="0.00" ry="0.00" width="6.18" height="6.18"/>
    <rect x="101.4216" y="142.5980" rx="0.00" ry="0.00" width="6.18" height="6.18"/>
    <rect x="101.4216" y="149.4608" rx="0.00" ry="0.00" width="6.18" height="6.18"/>
    <rect x="108.2843" y="87.6961" rx="0.00" ry="0.00" width="6.18" height="6.18"/>
    <rect x="108.2843" y="94.5588" rx="0.00" ry="0.00" width="6.18" height="6.18"/>
    <rect x="108.2843" y="101.4216" rx="0.00" ry="0.00" width="6.18" height="6.18"/>
    <rect x="108.2843" y="108.2843" rx="0.00" ry="0.00" width="6.18" height="6.18"/>
    <rect x="108.2843" y="115.1471" rx="0.00" ry="0.00" width="6.18" height="6.18"/>
    <rect x="108.2843" y="122.0098" rx="0.00" ry="0.00" width="6.18" height="6.18"/>
    <rect x="108.2843" y="128.8725" rx="0.00" ry="0.00" width="6.18" height="6.18"/>
    <rect x="108.2843" y="135.7353" rx="0.00" ry="0.00" width="6.18" height="6.18"/>
    <rect x="108.2843" y="142.5980" rx="0.00" ry="0.00" width="6.18" height="6.18"/>
    <rect x="108.2843" y="149.4608" rx="0.00" ry="0.00" width="6.18" height="6.18"/>
    <rect x="115.1471" y="87.6961" rx="0.00" ry="0.00" width="6.18" height="6.18"/>
    <rect x="115.1471" y="94.5588" rx="0.00" ry="0.00" width="6.18" height="6.18"/>
    <rect x="115.1471" y="101.4216" rx="0.00" ry="0.00" width="6.18" height="6.18"/>
    <rect x="115.1471" y="108.2843" rx="0.00" ry="0.00" width="6.18" height="6.18"/>
    <rect x="115.1471" y="115.1471" rx="0.00" ry="0.00" width="6.18" height="6.18"/>
    <rect x="115.1471" y="122.0098" rx="0.00" ry="0.00" width="6.18" height="6.18"/>
    <rect x="115.1471" y="128.8725" rx="0.00" ry="0.00" width="6.18" height="6.18"/>
    <rect x="115.1471" y="135.7353" rx="0.00" ry="0.00" width="6.18" height="6.18"/>
    <rect x="115.1471" y="142.5980" rx="0.00" ry="0.00" width="6.18" height="6.18"/>
    <rect x="115.1471" y="149.4608" rx="0.00" ry="0.00" width="6.18" height="6.18"/>
    <rect x="122.0098" y="87.6961" rx="0.00" ry="0.00" width="6.18" height="6.18"/>
    <rect x="122.0098" y="94.5588" rx="0.00" ry="0.00" width="6.18" height="6.18"/>
    <rect x="122.0098" y="101.4216" rx="0.00" ry="0.00" width="6.18" height="6.18"/>
    <rect x="122.0098" y="108.2843" rx="0.00" ry="0.00" width="6.18" height="6.18"/>
    <rect x="122.0098" y="115.1471" rx="0.00" ry="0.00" width="6.18" height="6.18"/>
    <rect x="122.0098" y="122.0098" rx="0.00" ry="0.00" width="6.18" height="6.18"/>
    <rect x="122.0098" y="128.8725" rx="0.00" ry="0.00" width="6.18" height="6.18"/>
    <rect x="122.0098" y="135.7353" rx="0.00" ry="0.00" width="6.18" height="6.18"/>
    <rect x="122.0098" y="142.5980" rx="0.00" ry="0.00" width="6.18" height="6.18"/>
    <rect x="122.0098" y="149.4608" rx="0.00" ry="0.00" width="6.18" height="6.18"/>
    <rect x="128.8725" y="87.6961" rx="0.00" ry="0.00" width="6.18" height="6.18"/>
    <rect x="128.8725" y="94.5588" rx="0.00" ry="0.00" width="6.18" height="6.18"/>
    <rect x="128.8725" y="101.4216" rx="0.00" ry="0.00" width="6.18" height="6.18"/>
    <rect x="128.8725" y="108.2843" rx="0.00" ry="0.00" width="6.18" height="6.18"/>
    <rect x="128.8725" y="115.1471" rx="0.00" ry="0.00" width="6.18" height="6.18"/>
    <rect x="128.8725" y="122.0098" rx="0.00" ry="0.00" width="6.18" height="6.18"/>
    <rect x="128.8725" y="128.8725" rx="0.00" ry="0.00" width="6.18" height="6.18"/>
    <rect x="128.8725" y="135.7353" rx="0.00" ry="0.00" width="6.18" height="6.18"/>
    <rect x="128.8725" y="142.5980" rx="0.00" ry="0.00" width="6.18" height="6.18"/>
    <rect x="128.8725" y="149.4608" rx="0.00" ry="0.00" width="6.18" height="6.18"/>
    <rect x="135.7353" y="87.6961" rx="0.00" ry="0.00" width="6.18" height="6.18"/>
    <rect x="135.7353" y="94.5588" rx="0.00" ry="0.00" width="6.18" height="6.18"/>
    <rect x="135.7353" y="101.4216" rx="0.00" ry="0.00" width="6.18" height="6.18"/>
    <rect x="135.7353" y="108.2843" rx="0.00" ry="0.00" width="6.18" height="6.18"/>
    <rect x="135.7353" y="115.1471" rx="0.00" ry="0.00" width="6.18" height="6.18"/>
    <rect x="135.7353" y="122.0098" rx="0.00" ry="0.00" width="6.18" height="6.18"/>
    <rect x="135.7353" y="128.8725" rx="0.00" ry="0.00" width="6.18" height="6.18"/>
    <rect x="135.7353" y="135.7353" rx="0.00" ry="0.00" width="6.18" height="6.18"/>
    <rect x="135.7353" y="142.5980" rx="0.00" ry="0.00" width="6.18" height="6.18"/>
    <rect x="135.7353" y="149.4608" rx="0.00" ry="0.00" width="6.18" height="6.18"/>
    <rect x="142.5980" y="87.6961" rx="0.00" ry="0.00" width="6.18" height="6.18"/>
    <rect x="142.5980" y="94.5588" rx="0.00" ry="0.00" width="6.18" height="6.18"/>
    <rect x="142.5980" y="101.4216" rx="0.00" ry="0.00" width="6.18" height="6.18"/>
    <rect x="142.5980" y="108.2843" rx="0.00" ry="0.00" width="6.18" height="6.18"/>
    <rect x="142.5980" y="115.1471" rx="0.00" ry="0.00" width="6.18" height="6.18"/>
    <rect x="142.5980" y="122.0098" rx="0.00" ry="0.00" width="6.18" height="6.18"/>
    <rect x="142.5980" y="128.8725" rx="0.00" ry="0.00" width="6.18" height="6.18"/>
    <rect x="142.5980" y="135.7353" rx="0.00" ry="0.00" width="6.18" height="6.18"/>
    <rect x="142.5980" y="142.5980" rx="0.00" ry="0.00" width="6.18" height="6.18"/>
    <rect x="142.5980" y="149.4608" rx="0.00" ry="0.00" width="6.18" height="6.18"/>
    <rect x="149.4608" y="87.6961" rx="0.00" ry="0.00" width="6.18" height="6.18"/>
    <rect x="149.4608" y="94.5588" rx="0.00" ry="0.00" width="6.18" height="6.18"/>
    <rect x="149.4608" y="101.4216" rx="0.00" ry="0.00" width="6.18" height="6.18"/>
    <rect x="149.4608" y="108.2843" rx="0.00" ry="0.00" width="6.18" height="6.18"/>
    <rect x="149.4608" y="115.1471" rx="0.00" ry="0.00" width="6.18" height="6.18"/>
    <rect x="149.4608" y="122.0098" rx="0.00" ry="0.00" width="6.18" height="6.18"/>
    <rect x="149.4608" y="128.8725" rx="0.00" ry="0.00" width="6.18" height="6.18"/>
    <rect x="149.4608" y="135.7353" rx="0.00" ry="0.00" width="6.18" height="6.18"/>
    <rect x="149.4608" y="142.5980" rx="0.00" ry="0.00" width="6.18" height="6.18"/>
    <rect x="149.4608" y="149.4608" rx="0.00" ry="0.00" width="6.18" height="6.18"/>
    <rect x="156.3235" y="87.6961" rx="0.00" ry="0.00" width="6.18" height="6.18"/>
    <rect x="156.3235" y="94.5588" rx="0.00" ry="0.00" width="6.18" height="6.18"/>
    <rect x="156.3235" y="101.4216" rx="0.00" ry="0.00" width="6.18" height="6.18"/>
    <rect x="156.3235" y="108.2843" rx="0.00" ry="0.00" width="6.18" height="6.18"/>
    <rect x="156.3235" y="115.1471" rx="0.00" ry="0.00" width="6.18" height="6.18"/>
    <rect x="156.3235" y="122.0098" rx="0.00" ry="0.00" width="6.18" height="6.18"/>
    <rect x="156.3235" y="128.8725" rx="0.00" ry="0.00" width="6.18" height="6.18"/>
    <rect x="156.3235" y="135.7353" rx="0.00" ry="0.00" width="6.18" height="6.18"/>
    <rect x="156.3235" y="142.5980" rx="0.00" ry="0.00" width="6.18" height="6.18"/>
    <rect x="156.3235" y="149.4608" rx="0.00" ry="0.00" width="6.18" height="6.18"/>
    <rect x="163.1863" y="87.6961" rx="0.00" ry="0.00" width="6.18" height="6.18"/>
    <rect x="163.1863" y="94.5588" rx="0.00" ry="0.00" width="6.18" height="6.18"/>
    <rect x="163.1863" y="101.4216" rx="0.00" ry="0.00" width="6.18" height="6.18"/>
    <rect x="163.1863" y="108.2843" rx="0.00" ry="0.00" width="6.18" height="6.18"/>
    <rect x="163.1863" y="115.1471" rx="0.00" ry="0.00" width="6.18" height="6.18"/>
    <rect x="163.1863" y="122.0098" rx="0.00" ry="0.00" width="6.18" height="6.18"/>
    <rect x="163.1863" y="128.8725" rx="0.00" ry="0.00" width="6.18" height="6.18"/>
    <rect x="163.1863" y="135.7353" rx="0.00" ry="0.00" width="6.18" height="6.18"/>
    <rect x="163.1863" y="142.5980" rx="0.00" ry="0.00" width="6.18" height="6.18"/>
    <rect x="163.1863" y="149.4608" rx="0.00" ry="0.00" width="6.18" height="6.18"/>
    <rect x="170.0490" y="87.6961" rx="0.00" ry="0.00" width="6.18" height="6.18"/>
    <rect x="170.0490" y="94.5588" rx="0.00" ry="0.00" width="6.18" height="6.18"/>
    <rect x="170.0490" y="101.4216" rx="0.00" ry="0.00" width="6.18" height="6.18"/>
    <rect x="170.0490" y="108.2843" rx="0.00" ry="0.00" width="6.18" height="6.18"/>
    <rect x="170.0490" y="115.1471" rx="0.00" ry="0.00" width="6.18" height="6.18"/>
    <rect x="170.0490" y="122.0098" rx="0.00" ry="0.00" width="6.18" height="6.18"/>
    <rect x="170.0490" y="128.8725" rx="0.00" ry="0.00" width="6.18" height="6.18"/>
    <rect x="170.0490" y="135.7353" rx="0.00" ry="0.00" width="6.18" height="6.18"/>
    <rect x="170.0490" y="142.5980" rx="0.00" ry="0.00" width="6.18" height="6.18"/>
    <rect x="170.0490" y="149.4608" rx="0.00" ry="0.00" width="6.18" height="6.18"/>
    <rect x="176.9118" y="87.6961" rx="0.00" ry="0.00" width="6.18" height="6.18"/>
    <rect x="176.9118" y="94.5588" rx="0.00" ry="0.00" width="6.18" height="6.18"/>
    <rect x="176.9118" y="101.4216" rx="0.00" ry="0.00" width="6.18" height="6.18"/>
    <rect x="176.9118" y="108.2843" rx="0.00" ry="0.00" width="6.18" height="6.18"/>
    <rect x="176.9118" y="115.1471" rx="0.00" ry="0.00" width="6.18" height="6.18"/>
    <rect x="176.9118" y="122.0098" rx="0.00" ry="0.00" width="6.18" height="6.18"/>
    <rect x="176.9118" y="128.8725" rx="0.00" ry="0.00" width="6.18" height="6.18"/>
    <rect x="176.9118" y="135.7353" rx="0.00" ry="0.00" width="6.18" height="6.18"/>
    <rect x="176.9118" y="142.5980" rx="0.00" ry="0.00" width="6.18" height="6.18"/>
    <rect x="176.9118" y="149.4608" rx="0.00" ry="0.00" width="6.18" height="6.18"/>
    <rect x="183.7745" y="87.6961" rx="0.00" ry="0.00" width="6.18" height="6.18"/>
    <rect x="183.7745" y="94.5588" rx="0.00" ry="0.00" width="6.18" height="6.18"/>
    <rect x="183.7745" y="101.4216" rx="0.00" ry="0.00" width="6.18" height="6.18"/>
    <rect x="183.7745" y="108.2843" rx="0.00" ry="0.00" width="6.18" height="6.18"/>
    <rect x="183.7745" y="115.1471" rx="0.00" ry="0.00" width="6.18" height="6.18"/>
    <rect x="183.7745" y="122.0098" rx="0.00" ry="0.00" width="6.18" height="6.18"/>
    <rect x="183.7745" y="128.8725" rx="0.00" ry="0.00" width="6.18" height="6.18"/>
    <rect x="183.7745" y="135.7353" rx="0.00" ry="0.00" width="6.18" height="6.18"/>
    <rect x="183.7745" y="142.5980" rx="0.00" ry="0.00" width="6.18" height="6.18"/>
    <rect x="183.7745" y="149.4608" rx="0.00" ry="0.00" width="6.18" height="6.18"/>
    <rect x="190.6373" y="87.6961" rx="0.00" ry="0.00" width="6.18" height="6.18"/>
    <rect x="190.6373" y="94.5588" rx="0.00" ry="0.00" width="6.18" height="6.18"/>
    <rect x="190.6373" y="101.4216" rx="0.00" ry="0.00" width="6.18" height="6.18"/>
    <rect x="190.6373" y="108.2843" rx="0.00" ry="0.00" width="6.18" height="6.18"/>
    <rect x="190.6373" y="115.1471" rx="0.00" ry="0.00" width="6.18" height="6.18"/>
    <rect x="190.6373" y="122.0098" rx="0.00" ry="0.00" width="6.18" height="6.18"/>
    <rect x="190.6373" y="128.8725" rx="0.00" ry="0.00" width="6.18" height="6.18"/>
    <rect x="190.6373" y="135.7353" rx="0.00" ry="0.00" width="6.18" height="6.18"/>
    <rect x="190.6373" y="142.5980" rx="0.00" ry="0.00" width="6.18" height="6.18"/>
    <rect x="190.6373" y="149.4608" rx="0.00" ry="0.00" width="6.18" height="6.18"/>
    <rect x="197.5000" y="87.6961" rx="0.00" ry="0.00" width="6.18" height="6.18"/>
    <rect x="197.5000" y="94.5588" rx="0.00" ry="0.00" width="6.18" height="6.18"/>
    <rect x="197.5000" y="101.4216" rx="0.00" ry="0.00" width="6.18" height="6.18"/>
    <rect x="197.5000" y="108.2843" rx="0.00" ry="0.00" width="6.18" height="6.18"/>
    <rect x="197.5000" y="115.1471" rx="0.00" ry="0.00" width="6.18" height="6.18"/>
    <rect x="197.5000" y="122.0098" rx="0.00" ry="0.00" width="6.18" height="6.18"/>
    <rect x="197.5000" y="128.8725" rx="0.00" ry="0.00" width="6.18" height="6.18"/>
    <rect x="197.5000" y="135.7353" rx="0.00" ry="0.00" width="6.18" height="6.18"/>
    <rect x="197.5000" y="142.5980" rx="0.00" ry="0.00" width="6.18" height="6.18"/>
    <rect x="197.5000" y="149.4608" rx="0.00" ry="0.00" width="6.18" height="6.18"/>
    <rect x="204.3627" y="87.6961" rx="0.00" ry="0.00" width="6.18" height="6.18"/>
    <rect x="204.3627" y="94.5588" rx="0.00" ry="0.00" width="6.18" height="6.18"/>
    <rect x="204.3627" y="101.4216" rx="0.00" ry="0.00" width="6.18" height="6.18"/>
    <rect x="204.3627" y="108.2843" rx="0.00" ry="0.00" width="6.18" height="6.18"/>
    <rect x="204.3627" y="115.1471" rx="0.00" ry="0.00" width="6.18" height="6.18"/>
    <rect x="204.3627" y="122.0098" rx="0.00" ry="0.00" width="6.18" height="6.18"/>
    <rect x="204.3627" y="128.8725" rx="0.00" ry="0.00" width="6.18" height="6.18"/>
    <rect x="204.3627" y="135.7353" rx="0.00" ry="0.00" width="6.18" height="6.18"/>
    <rect x="204.3627" y="142.5980" rx="0.00" ry="0.00" width="6.18" height="6.18"/>
    <rect x="204.3627" y="149.4608" rx="0.00" ry="0.00" width="6.18" height="6.18"/>
    <rect x="211.2255" y="87.6961" rx="0.00" ry="0.00" width="6.18" height="6.18"/>
    <rect x="211.2255" y="94.5588" rx="0.00" ry="0.00" width="6.18" height="6.18"/>
    <rect x="211.2255" y="101.4216" rx="0.00" ry="0.00" width="6.18" height="6.18"/>
    <rect x="211.2255" y="108.2843" rx="0.00" ry="0.00" width="6.18" height="6.18"/>
    <rect x="211.2255" y="115.1471" rx="0.00" ry="0.00" width="6.18" height="6.18"/>
    <rect x="211.2255" y="122.0098" rx="0.00" ry="0.00" width="6.18" height="6.18"/>
    <rect x="211.2255" y="128.8725" rx="0.00" ry="0.00" width="6.18" height="6.18"/>
    <rect x="211.2255" y="135.7353" rx="0.00" ry="0.00" width="6.18" height="6.18"/>
    <rect x="211.2255" y="142.5980" rx="0.00" ry="0.00" width="6.18" height="6.18"/>
    <rect x="211.2255" y="149.4608" rx="0.00" ry="0.00" width="6.18" height="6.18"/>
    <rect x="218.0882" y="87.6961" rx="0.00" ry="0.00" width="6.18" height="6.18"/>
    <rect x="218.0882" y="94.5588" rx="0.00" ry="0.00" width="6.18" height="6.18"/>
    <rect x="218.0882" y="101.4216" rx="0.00" ry="0.00" width="6.18" height="6.18"/>
    <rect x="218.0882" y="108.2843" rx="0.00" ry="0.00" width="6.18" height="6.18"/>
    <rect x="218.0882" y="115.1471" rx="0.00" ry="0.00" width="6.18" height="6.18"/>
    <rect x="218.0882" y="122.0098" rx="0.00" ry="0.00" width="6.18" height="6.18"/>
    <rect x="218.0882" y="128.8725" rx="0.00" ry="0.00" width="6.18" height="6.18"/>
    <rect x="218.0882" y="135.7353" rx="0.00" ry="0.00" width="6.18" height="6.18"/>
    <rect x="218.0882" y="142.5980" rx="0.00" ry="0.00" width="6.18" height="6.18"/>
    <rect x="218.0882" y="149.4608" rx="0.00" ry="0.00" width="6.18" height="6.18"/>
    <rect x="224.9510" y="87.6961" rx="0.00" ry="0.00" width="6.18" height="6.18"/>
    <rect x="224.9510" y="94.5588" rx="0.00" ry="0.00" width="6.18" height="6.18"/>
    <rect x="224.9510" y="101.4216" rx="0.00" ry="0.00" width="6.18" height="6.18"/>
    <rect x="224.9510" y="108.2843" rx="0.00" ry="0.00" width="6.18" height="6.18"/>
    <rect x="224.9510" y="115.1471" rx="0.00" ry="0.00" width="6.18" height="6.18"/>
    <rect x="224.9510" y="122.0098" rx="0.00" ry="0.00" width="6.18" height="6.18"/>
    <rect x="224.9510" y="128.8725" rx="0.00" ry="0.00" width="6.18" height="6.18"/>
    <rect x="224.9510" y="135.7353" rx="0.00" ry="0.00" width="6.18" height="6.18"/>
    <rect x="224.9510" y="142.5980" rx="0.00" ry="0.00" width="6.18" height="6.18"/>
    <rect x="224.9510" y="149.4608" rx="0.00" ry="0.00" width="6.18" height="6.18"/>
    <rect x="231.8137" y="87.6961" rx="0.00" ry="0.00" width="6.18" height="6.18"/>
    <rect x="231.8137" y="94.5588" rx="0.00" ry="0.00" width="6.18" height="6.18"/>
    <rect x="231.8137" y="101.4216" rx="0.00" ry="0.00" width="6.18" height="6.18"/>
    <rect x="231.8137" y="108.2843" rx="0.00" ry="0.00" width="6.18" height="6.18"/>
    <rect x="231.8137" y="115.1471" rx="0.00" ry="0.00" width="6.18" height="6.18"/>
    <rect x="231.8137" y="122.0098" rx="0.00" ry="0.00" width="6.18" height="6.18"/>
    <rect x="231.8137" y="128.8725" rx="0.00" ry="0.00" width="6.18" height="6.18"/>
    <rect x="231.8137" y="135.7353" rx="0.00" ry="0.00" width="6.18" height="6.18"/>
    <rect x="231.8137" y="142.5980" rx="0.00" ry="0.00" width="6.18" height="6.18"/>
    <rect x="231.8137" y="149.4608" rx="0.00" ry="0.00" width="6.18" height="6.18"/>
    <rect x="238.6765" y="87.6961" rx="0.00" ry="0.00" width="6.18" height="6.18"/>
    <rect x="238.6765" y="94.5588" rx="0.00" ry="0.00" width="6.18" height="6.18"/>
    <rect x="238.6765" y="101.4216" rx="0.00" ry="0.00" width="6.18" height="6.18"/>
    <rect x="238.6765" y="108.2843" rx="0.00" ry="0.00" width="6.18" height="6.18"/>
    <rect x="238.6765" y="115.1471" rx="0.00" ry="0.00" width="6.18" height="6.18"/>
    <rect x="238.6765" y="122.0098" rx="0.00" ry="0.00" width="6.18" height="6.18"/>
    <rect x="238.6765" y="128.8725" rx="0.00" ry="0.00" width="6.18" height="6.18"/>
    <rect x="238.6765" y="135.7353" rx="0.00" ry="0.00" width="6.18" height="6.18"/>
    <rect x="238.6765" y="142.5980" rx="0.00" ry="0.00" width="6.18" height="6.18"/>
    <rect x="238.6765" y="149.4608" rx="0.00" ry="0.00" width="6.18" height="6.18"/>
    <rect x="245.5392" y="87.6961" rx="0.00" ry="0.00" width="6.18" height="6.18"/>
    <rect x="245.5392" y="94.5588" rx="0.00" ry="0.00" width="6.18" height="6.18"/>
    <rect x="245.5392" y="101.4216" rx="0.00" ry="0.00" width="6.18" height="6.18"/>
    <rect x="245.5392" y="108.2843" rx="0.00" ry="0.00" width="6.18" height="6.18"/>
    <rect x="245.5392" y="115.1471" rx="0.00" ry="0.00" width="6.18" height="6.18"/>
    <rect x="245.5392" y="122.0098" rx="0.00" ry="0.00" width="6.18" height="6.18"/>
    <rect x="245.5392" y="128.8725" rx="0.00" ry="0.00" width="6.18" height="6.18"/>
    <rect x="245.5392" y="135.7353" rx="0.00" ry="0.00" width="6.18" height="6.18"/>
    <rect x="245.5392" y="142.5980" rx="0.00" ry="0.00" width="6.18" height="6.18"/>
    <rect x="245.5392" y="149.4608" rx="0.00" ry="0.00" width="6.18" height="6.18"/>
    <rect x="252.4020" y="87.6961" rx="0.00" ry="0.00" width="6.18" height="6.18"/>
    <rect x="252.4020" y="94.5588" rx="0.00" ry="0.00" width="6.18" height="6.18"/>
    <rect x="252.4020" y="101.4216" rx="0.00" ry="0.00" width="6.18" height="6.18"/>
    <rect x="252.4020" y="108.2843" rx="0.00" ry="0.00" width="6.18" height="6.18"/>
    <rect x="252.4020" y="115.1471" rx="0.00" ry="0.00" width="6.18" height="6.18"/>
    <rect x="252.4020" y="122.0098" rx="0.00" ry="0.00" width="6.18" height="6.18"/>
    <rect x="252.4020" y="128.8725" rx="0.00" ry="0.00" width="6.18" height="6.18"/>
    <rect x="252.4020" y="135.7353" rx="0.00" ry="0.00" width="6.18" height="6.18"/>
    <rect x="252.4020" y="142.5980" rx="0.00" ry="0.00" width="6.18" height="6.18"/>
    <rect x="252.4020" y="149.4608" rx="0.00" ry="0.00" width="6.18" height="6.18"/>
    <rect x="259.2647" y="87.6961" rx="0.00" ry="0.00" width="6.18" height="6.18"/>
    <rect x="259.2647" y="94.5588" rx="0.00" ry="0.00" width="6.18" height="6.18"/>
    <rect x="259.2647" y="101.4216" rx="0.00" ry="0.00" width="6.18" height="6.18"/>
    <rect x="259.2647" y="108.2843" rx="0.00" ry="0.00" width="6.18" height="6.18"/>
    <rect x="259.2647" y="115.1471" rx="0.00" ry="0.00" width="6.18" height="6.18"/>
    <rect x="259.2647" y="122.0098" rx="0.00" ry="0.00" width="6.18" height="6.18"/>
    <rect x="259.2647" y="128.8725" rx="0.00" ry="0.00" width="6.18" height="6.18"/>
    <rect x="259.2647" y="135.7353" rx="0.00" ry="0.00" width="6.18" height="6.18"/>
    <rect x="259.2647" y="142.5980" rx="0.00" ry="0.00" width="6.18" height="6.18"/>
    <rect x="259.2647" y="149.4608" rx="0.00" ry="0.00" width="6.18" height="6.18"/>
    <rect x="266.1275" y="87.6961" rx="0.00" ry="0.00" width="6.18" height="6.18"/>
    <rect x="266.1275" y="94.5588" rx="0.00" ry="0.00" width="6.18" height="6.18"/>
    <rect x="266.1275" y="101.4216" rx="0.00" ry="0.00" width="6.18" height="6.18"/>
    <rect x="266.1275" y="108.2843" rx="0.00" ry="0.00" width="6.18" height="6.18"/>
    <rect x="266.1275" y="115.1471" rx="0.00" ry="0.00" width="6.18" height="6.18"/>
    <rect x="266.1275" y="122.0098" rx="0.00" ry="0.00" width="6.18" height="6.18"/>
    <rect x="266.1275" y="128.8725" rx="0.00" ry="0.00" width="6.18" height="6.18"/>
    <rect x="266.1275" y="135.7353" rx="0.00" ry="0.00" width="6.18" height="6.18"/>
    <rect x="266.1275" y="142.5980" rx="0.00" ry="0.00" width="6.18" height="6.18"/>
    <rect x="266.1275" y="149.4608" rx="0.00" ry="0.00" width="6.18" height="6.18"/>
    <rect x="272.9902" y="87.6961" rx="0.00" ry="0.00" width="6.18" height="6.18"/>
    <rect x="272.9902" y="94.5588" rx="0.00" ry="0.00" width="6.18" height="6.18"/>
    <rect x="272.9902" y="101.4216" rx="0.00" ry="0.00" width="6.18" height="6.18"/>
    <rect x="272.9902" y="108.2843" rx="0.00" ry="0.00" width="6.18" height="6.18"/>
    <rect x="272.9902" y="115.1471" rx="0.00" ry="0.00" width="6.18" height="6.18"/>
    <rect x="272.9902" y="122.0098" rx="0.00" ry="0.00" width="6.18" height="6.18"/>
    <rect x="272.9902" y="128.8725" rx="0.00" ry="0.00" width="6.18" height="6.18"/>
    <rect x="272.9902" y="135.7353" rx="0.00" ry="0.00" width="6.18" height="6.18"/>
    <rect x="272.9902" y="142.5980" rx="0.00" ry="0.00" width="6.18" height="6.18"/>
    <rect x="272.9902" y="149.4608" rx="0.00" ry="0.00" width="6.18" height="6.18"/>
    <rect x="279.8529" y="87.6961" rx="0.00" ry="0.00" width="6.18" height="6.18"/>
    <rect x="279.8529" y="94.5588" rx="0.00" ry="0.00" width="6.18" height="6.18"/>
    <rect x="279.8529" y="101.4216" rx="0.00" ry="0.00" width="6.18" height="6.18"/>
    <rect x="279.8529" y="108.2843" rx="0.00" ry="0.00" width="6.18" height="6.18"/>
    <rect x="279.8529" y="115.1471" rx="0.00" ry="0.00" width="6.18" height="6.18"/>
    <rect x="279.8529" y="122.0098" rx="0.00" ry="0.00" width="6.18" height="6.18"/>
    <rect x="279.8529" y="128.8725" rx="0.00" ry="0.00" width="6.18" height="6.18"/>
    <rect x="279.8529" y="135.7353" rx="0.00" ry="0.00" width="6.18" height="6.18"/>
    <rect x="279.8529" y="142.5980" rx="0.00" ry="0.00" width="6.18" height="6.18"/>
    <rect x="279.8529" y="149.4608" rx="0.00" ry="0.00" width="6.18" height="6.18"/>
    <rect x="286.7157" y="87.6961" rx="0.00" ry="0.00" width="6.18" height="6.18"/>
    <rect x="286.7157" y="94.5588" rx="0.00" ry="0.00" width="6.18" height="6.18"/>
    <rect x="286.7157" y="101.4216" rx="0.00" ry="0.00" width="6.18" height="6.18"/>
    <rect x="286.7157" y="108.2843" rx="0.00" ry="0.00" width="6.18" height="6.18"/>
    <rect x="286.7157" y="115.1471" rx="0.00" ry="0.00" width="6.18" height="6.18"/>
    <rect x="286.7157" y="122.0098" rx="0.00" ry="0.00" width="6.18" height="6.18"/>
    <rect x="286.7157" y="128.8725" rx="0.00" ry="0.00" width="6.18" height="6.18"/>
    <rect x="286.7157" y="135.7353" rx="0.00" ry="0.00" width="6.18" height="6.18"/>
    <rect x="286.7157" y="142.5980" rx="0.00" ry="0.00" width="6.18" height="6.18"/>
    <rect x="286.7157" y="149.4608" rx="0.00" ry="0.00" width="6.18" height="6.18"/>
    <rect x="293.5784" y="87.6961" rx="0.00" ry="0.00" width="6.18" height="6.18"/>
    <rect x="293.5784" y="94.5588" rx="0.00" ry="0.00" width="6.18" height="6.18"/>
    <rect x="293.5784" y="101.4216" rx="0.00" ry="0.00" width="6.18" height="6.18"/>
    <rect x="293.5784" y="108.2843" rx="0.00" ry="0.00" width="6.18" height="6.18"/>
    <rect x="293.5784" y="115.1471" rx="0.00" ry="0.00" width="6.18" height="6.18"/>
    <rect x="293.5784" y="122.0098" rx="0.00" ry="0.00" width="6.18" height="6.18"/>
    <rect x="293.5784" y="128.8725" rx="0.00" ry="0.00" width="6.18" height="6.18"/>
    <rect x="293.5784" y="135.7353" rx="0.00" ry="0.00" width="6.18" height="6.18"/>
    <rect x="293.5784" y="142.5980" rx="0.00" ry="0.00" width="6.18" height="6.18"/>
    <rect x="293.5784" y="149.4608" rx="0.00" ry="0.00" width="6.18" height="6.18"/>
    <rect x="300.4412" y="87.6961" rx="0.00" ry="0.00" width="6.18" height="6.18"/>
    <rect x="300.4412" y="94.5588" rx="0.00" ry="0.00" width="6.18" height="6.18"/>
    <rect x="300.4412" y="101.4216" rx="0.00" ry="0.00" width="6.18" height="6.18"/>
    <rect x="300.4412" y="108.2843" rx="0.00" ry="0.00" width="6.18" height="6.18"/>
    <rect x="300.4412" y="115.1471" rx="0.00" ry="0.00" width="6.18" height="6.18"/>
    <rect x="300.4412" y="122.0098" rx="0.00" ry="0.00" width="6.18" height="6.18"/>
    <rect x="300.4412" y="128.8725" rx="0.00" ry="0.00" width="6.18" height="6.18"/>
    <rect x="300.4412" y="135.7353" rx="0.00" ry="0.00" width="6.18" height="6.18"/>
    <rect x="300.4412" y="142.5980" rx="0.00" ry="0.00" width="6.18" height="6.18"/>
    <rect x="300.4412" y="149.4608" rx="0.00" ry="0.00" width="6.18" height="6.18"/>
    <rect x="307.3039" y="87.6961" rx="0.00" ry="0.00" width="6.18" height="6.18"/>
    <rect x="307.3039" y="94.5588" rx="0.00" ry="0.00" width="6.18" height="6.18"/>
    <rect x="307.3039" y="101.4216" rx="0.00" ry="0.00" width="6.18" height="6.18"/>
    <rect x="307.3039" y="108.2843" rx="0.00" ry="0.00" width="6.18" height="6.18"/>
    <rect x="307.3039" y="115.1471" rx="0.00" ry="0.00" width="6.18" height="6.18"/>
    <rect x="307.3039" y="122.0098" rx="0.00" ry="0.00" width="6.18" height="6.18"/>
    <rect x="307.3039" y="128.8725" rx="0.00" ry="0.00" width="6.18" height="6.18"/>
    <rect x="307.3039" y="135.7353" rx="0.00" ry="0.00" width="6.18" height="6.18"/>
    <rect x="307.3039" y="142.5980" rx="0.00" ry="0.00" width="6.18" height="6.18"/>
    <rect x="307.3039" y="149.4608" rx="0.00" ry="0.00" width="6.18" height="6.18"/>
    <rect x="314.1667" y="87.6961" rx="0.00" ry="0.00" width="6.18" height="6.18"/>
    <rect x="314.1667" y="94.5588" rx="0.00" ry="0.00" width="6.18" height="6.18"/>
    <rect x="314.1667" y="101.4216" rx="0.00" ry="0.00" width="6.18" height="6.18"/>
    <rect x="314.1667" y="108.2843" rx="0.00" ry="0.00" width="6.18" height="6.18"/>
    <rect x="314.1667" y="115.1471" rx="0.00" ry="0.00" width="6.18" height="6.18"/>
    <rect x="314.1667" y="122.0098" rx="0.00" ry="0.00" width="6.18" height="6.18"/>
    <rect x="314.1667" y="128.8725" rx="0.00" ry="0.00" width="6.18" height="6.18"/>
    <rect x="314.1667" y="135.7353" rx="0.00" ry="0.00" width="6.18" height="6.18"/>
    <rect x="314.1667" y="142.5980" rx="0.00" ry="0.00" width="6.18" height="6.18"/>
    <rect x="314.1667" y="149.4608" rx="0.00" ry="0.00" width="6.18" height="6.18"/>
    <rect x="321.0294" y="87.6961" rx="0.00" ry="0.00" width="6.18" height="6.18"/>
    <rect x="321.0294" y="94.5588" rx="0.00" ry="0.00" width="6.18" height="6.18"/>
    <rect x="321.0294" y="101.4216" rx="0.00" ry="0.00" width="6.18" height="6.18"/>
    <rect x="321.0294" y="108.2843" rx="0.00" ry="0.00" width="6.18" height="6.18"/>
    <rect x="321.0294" y="115.1471" rx="0.00" ry="0.00" width="6.18" height="6.18"/>
    <rect x="321.0294" y="122.0098" rx="0.00" ry="0.00" width="6.18" height="6.18"/>
    <rect x="321.0294" y="128.8725" rx="0.00" ry="0.00" width="6.18" height="6.18"/>
    <rect x="321.0294" y="135.7353" rx="0.00" ry="0.00" width="6.18" height="6.18"/>
    <rect x="321.0294" y="142.5980" rx="0.00" ry="0.00" width="6.18" height="6.18"/>
    <rect x="321.0294" y="149.4608" rx="0.00" ry="0.00" width="6.18" height="6.18"/>
    <rect x="327.8922" y="87.6961" rx="0.00" ry="0.00" width="6.18" height="6.18"/>
    <rect x="327.8922" y="94.5588" rx="0.00" ry="0.00" width="6.18" height="6.18"/>
    <rect x="327.8922" y="101.4216" rx="0.00" ry="0.00" width="6.18" height="6.18"/>
    <rect x="327.8922" y="108.2843" rx="0.00" ry="0.00" width="6.18" height="6.18"/>
    <rect x="327.8922" y="115.1471" rx="0.00" ry="0.00" width="6.18" height="6.18"/>
    <rect x="327.8922" y="122.0098" rx="0.00" ry="0.00" width="6.18" height="6.18"/>
    <rect x="327.8922" y="128.8725" rx="0.00" ry="0.00" width="6.18" height="6.18"/>
    <rect x="327.8922" y="135.7353" rx="0.00" ry="0.00" width="6.18" height="6.18"/>
    <rect x="327.8922" y="142.5980" rx="0.00" ry="0.00" width="6.18" height="6.18"/>
    <rect x="327.8922" y="149.4608" rx="0.00" ry="0.00" width="6.18" height="6.18"/>
    <rect x="334.7549" y="87.6961" rx="0.00" ry="0.00" width="6.18" height="6.18"/>
    <rect x="334.7549" y="94.5588" rx="0.00" ry="0.00" width="6.18" height="6.18"/>
    <rect x="334.7549" y="101.4216" rx="0.00" ry="0.00" width="6.18" height="6.18"/>
    <rect x="334.7549" y="108.2843" rx="0.00" ry="0.00" width="6.18" height="6.18"/>
    <rect x="334.7549" y="115.1471" rx="0.00" ry="0.00" width="6.18" height="6.18"/>
    <rect x="334.7549" y="122.0098" rx="0.00" ry="0.00" width="6.18" height="6.18"/>
    <rect x="334.7549" y="128.8725" rx="0.00" ry="0.00" width="6.18" height="6.18"/>
    <rect x="334.7549" y="135.7353" rx="0.00" ry="0.00" width="6.18" height="6.18"/>
    <rect x="334.7549" y="142.5980" rx="0.00" ry="0.00" width="6.18" height="6.18"/>
    <rect x="334.7549" y="149.4608" rx="0.00" ry="0.00" width="6.18" height="6.18"/>
    <rect x="341.6176" y="87.6961" rx="0.00" ry="0.00" width="6.18" height="6.18"/>
    <rect x="341.6176" y="94.5588" rx="0.00" ry="0.00" width="6.18" height="6.18"/>
    <rect x="341.6176" y="101.4216" rx="0.00" ry="0.00" width="6.18" height="6.18"/>
    <rect x="341.6176" y="108.2843" rx="0.00" ry="0.00" width="6.18" height="6.18"/>
    <rect x="341.6176" y="115.1471" rx="0.00" ry="0.00" width="6.18" height="6.18"/>
    <rect x="341.6176" y="122.0098" rx="0.00" ry="0.00" width="6.18" height="6.18"/>
    <rect x="341.6176" y="128.8725" rx="0.00" ry="0.00" width="6.18" height="6.18"/>
    <rect x="341.6176" y="135.7353" rx="0.00" ry="0.00" width="6.18" height="6.18"/>
    <rect x="341.6176" y="142.5980" rx="0.00" ry="0.00" width="6.18" height="6.18"/>
    <rect x="341.6176" y="149.4608" rx="0.00" ry="0.00" width="6.18" height="6.18"/>
    <rect x="348.4804" y="87.6961" rx="0.00" ry="0.00" width="6.18" height="6.18"/>
    <rect x="348.4804" y="94.5588" rx="0.00" ry="0.00" width="6.18" height="6.18"/>
    <rect x="348.4804" y="101.4216" rx="0.00" ry="0.00" width="6.18" height="6.18"/>
    <rect x="348.4804" y="108.2843" rx="0.00" ry="0.00" width="6.18" height="6.18"/>
    <rect x="348.4804" y="115.1471" rx="0.00" ry="0.00" width="6.18" height="6.18"/>
    <rect x="348.4804" y="122.0098" rx="0.00" ry="0.00" width="6.18" height="6.18"/>
    <rect x="348.4804" y="128.8725" rx="0.00" ry="0.00" width="6.18" height="6.18"/>
  </g>
  </g>
  <g id="centerbench">
  </g>
</g>
</svg>
