<?xml version="1.0" encoding="UTF-8" standalone="no"?>
<svg xmlns:svg="http://www.w3.org/2000/svg"
xmlns="http://www.w3.org/2000/svg" version="1.1"
width="360.0" height="212.6">
<!-- Created with the Wikimedia westminster parliament diagram creator (http://tools.wmflabs.org/parliamentdiagram/westminsterinputform.html) -->
<g id="diagram">
  <g id="headbench">
  <g style="fill:#FFEF14" id="New Liberals">
    <rect x="5.4605" y="102.1711" rx="0.00" ry="0.00" width="8.29" height="8.29"/>
  </g>
  </g>
  <g id="leftbench">
  <g style="fill:#FFEF14" id="New Liberals">
    <rect x="14.6711" y="88.3553" rx="0.00" ry="0.00" width="8.29" height="8.29"/>
    <rect x="14.6711" y="79.1447" rx="0.00" ry="0.00" width="8.29" height="8.29"/>
    <rect x="14.6711" y="69.9342" rx="0.00" ry="0.00" width="8.29" height="8.29"/>
    <rect x="14.6711" y="60.7237" rx="0.00" ry="0.00" width="8.29" height="8.29"/>
    <rect x="14.6711" y="51.5132" rx="0.00" ry="0.00" width="8.29" height="8.29"/>
    <rect x="14.6711" y="42.3026" rx="0.00" ry="0.00" width="8.29" height="8.29"/>
    <rect x="14.6711" y="33.0921" rx="0.00" ry="0.00" width="8.29" height="8.29"/>
    <rect x="14.6711" y="23.8816" rx="0.00" ry="0.00" width="8.29" height="8.29"/>
    <rect x="14.6711" y="14.6711" rx="0.00" ry="0.00" width="8.29" height="8.29"/>
    <rect x="14.6711" y="5.4605" rx="0.00" ry="0.00" width="8.29" height="8.29"/>
    <rect x="23.8816" y="88.3553" rx="0.00" ry="0.00" width="8.29" height="8.29"/>
    <rect x="23.8816" y="79.1447" rx="0.00" ry="0.00" width="8.29" height="8.29"/>
    <rect x="23.8816" y="69.9342" rx="0.00" ry="0.00" width="8.29" height="8.29"/>
    <rect x="23.8816" y="60.7237" rx="0.00" ry="0.00" width="8.29" height="8.29"/>
    <rect x="23.8816" y="51.5132" rx="0.00" ry="0.00" width="8.29" height="8.29"/>
    <rect x="23.8816" y="42.3026" rx="0.00" ry="0.00" width="8.29" height="8.29"/>
    <rect x="23.8816" y="33.0921" rx="0.00" ry="0.00" width="8.29" height="8.29"/>
    <rect x="23.8816" y="23.8816" rx="0.00" ry="0.00" width="8.29" height="8.29"/>
    <rect x="23.8816" y="14.6711" rx="0.00" ry="0.00" width="8.29" height="8.29"/>
    <rect x="23.8816" y="5.4605" rx="0.00" ry="0.00" width="8.29" height="8.29"/>
    <rect x="33.0921" y="88.3553" rx="0.00" ry="0.00" width="8.29" height="8.29"/>
    <rect x="33.0921" y="79.1447" rx="0.00" ry="0.00" width="8.29" height="8.29"/>
    <rect x="33.0921" y="69.9342" rx="0.00" ry="0.00" width="8.29" height="8.29"/>
    <rect x="33.0921" y="60.7237" rx="0.00" ry="0.00" width="8.29" height="8.29"/>
    <rect x="33.0921" y="51.5132" rx="0.00" ry="0.00" width="8.29" height="8.29"/>
    <rect x="33.0921" y="42.3026" rx="0.00" ry="0.00" width="8.29" height="8.29"/>
    <rect x="33.0921" y="33.0921" rx="0.00" ry="0.00" width="8.29" height="8.29"/>
    <rect x="33.0921" y="23.8816" rx="0.00" ry="0.00" width="8.29" height="8.29"/>
    <rect x="33.0921" y="14.6711" rx="0.00" ry="0.00" width="8.29" height="8.29"/>
    <rect x="33.0921" y="5.4605" rx="0.00" ry="0.00" width="8.29" height="8.29"/>
    <rect x="42.3026" y="88.3553" rx="0.00" ry="0.00" width="8.29" height="8.29"/>
    <rect x="42.3026" y="79.1447" rx="0.00" ry="0.00" width="8.29" height="8.29"/>
    <rect x="42.3026" y="69.9342" rx="0.00" ry="0.00" width="8.29" height="8.29"/>
    <rect x="42.3026" y="60.7237" rx="0.00" ry="0.00" width="8.29" height="8.29"/>
    <rect x="42.3026" y="51.5132" rx="0.00" ry="0.00" width="8.29" height="8.29"/>
    <rect x="42.3026" y="42.3026" rx="0.00" ry="0.00" width="8.29" height="8.29"/>
    <rect x="42.3026" y="33.0921" rx="0.00" ry="0.00" width="8.29" height="8.29"/>
    <rect x="42.3026" y="23.8816" rx="0.00" ry="0.00" width="8.29" height="8.29"/>
    <rect x="42.3026" y="14.6711" rx="0.00" ry="0.00" width="8.29" height="8.29"/>
    <rect x="42.3026" y="5.4605" rx="0.00" ry="0.00" width="8.29" height="8.29"/>
    <rect x="51.5132" y="88.3553" rx="0.00" ry="0.00" width="8.29" height="8.29"/>
    <rect x="51.5132" y="79.1447" rx="0.00" ry="0.00" width="8.29" height="8.29"/>
    <rect x="51.5132" y="69.9342" rx="0.00" ry="0.00" width="8.29" height="8.29"/>
    <rect x="51.5132" y="60.7237" rx="0.00" ry="0.00" width="8.29" height="8.29"/>
    <rect x="51.5132" y="51.5132" rx="0.00" ry="0.00" width="8.29" height="8.29"/>
    <rect x="51.5132" y="42.3026" rx="0.00" ry="0.00" width="8.29" height="8.29"/>
    <rect x="51.5132" y="33.0921" rx="0.00" ry="0.00" width="8.29" height="8.29"/>
    <rect x="51.5132" y="23.8816" rx="0.00" ry="0.00" width="8.29" height="8.29"/>
    <rect x="51.5132" y="14.6711" rx="0.00" ry="0.00" width="8.29" height="8.29"/>
    <rect x="51.5132" y="5.4605" rx="0.00" ry="0.00" width="8.29" height="8.29"/>
    <rect x="60.7237" y="88.3553" rx="0.00" ry="0.00" width="8.29" height="8.29"/>
    <rect x="60.7237" y="79.1447" rx="0.00" ry="0.00" width="8.29" height="8.29"/>
    <rect x="60.7237" y="69.9342" rx="0.00" ry="0.00" width="8.29" height="8.29"/>
    <rect x="60.7237" y="60.7237" rx="0.00" ry="0.00" width="8.29" height="8.29"/>
    <rect x="60.7237" y="51.5132" rx="0.00" ry="0.00" width="8.29" height="8.29"/>
    <rect x="60.7237" y="42.3026" rx="0.00" ry="0.00" width="8.29" height="8.29"/>
    <rect x="60.7237" y="33.0921" rx="0.00" ry="0.00" width="8.29" height="8.29"/>
    <rect x="60.7237" y="23.8816" rx="0.00" ry="0.00" width="8.29" height="8.29"/>
    <rect x="60.7237" y="14.6711" rx="0.00" ry="0.00" width="8.29" height="8.29"/>
    <rect x="60.7237" y="5.4605" rx="0.00" ry="0.00" width="8.29" height="8.29"/>
    <rect x="69.9342" y="88.3553" rx="0.00" ry="0.00" width="8.29" height="8.29"/>
    <rect x="69.9342" y="79.1447" rx="0.00" ry="0.00" width="8.29" height="8.29"/>
    <rect x="69.9342" y="69.9342" rx="0.00" ry="0.00" width="8.29" height="8.29"/>
    <rect x="69.9342" y="60.7237" rx="0.00" ry="0.00" width="8.29" height="8.29"/>
    <rect x="69.9342" y="51.5132" rx="0.00" ry="0.00" width="8.29" height="8.29"/>
    <rect x="69.9342" y="42.3026" rx="0.00" ry="0.00" width="8.29" height="8.29"/>
    <rect x="69.9342" y="33.0921" rx="0.00" ry="0.00" width="8.29" height="8.29"/>
    <rect x="69.9342" y="23.8816" rx="0.00" ry="0.00" width="8.29" height="8.29"/>
    <rect x="69.9342" y="14.6711" rx="0.00" ry="0.00" width="8.29" height="8.29"/>
    <rect x="69.9342" y="5.4605" rx="0.00" ry="0.00" width="8.29" height="8.29"/>
    <rect x="79.1447" y="88.3553" rx="0.00" ry="0.00" width="8.29" height="8.29"/>
    <rect x="79.1447" y="79.1447" rx="0.00" ry="0.00" width="8.29" height="8.29"/>
    <rect x="79.1447" y="69.9342" rx="0.00" ry="0.00" width="8.29" height="8.29"/>
    <rect x="79.1447" y="60.7237" rx="0.00" ry="0.00" width="8.29" height="8.29"/>
    <rect x="79.1447" y="51.5132" rx="0.00" ry="0.00" width="8.29" height="8.29"/>
    <rect x="79.1447" y="42.3026" rx="0.00" ry="0.00" width="8.29" height="8.29"/>
    <rect x="79.1447" y="33.0921" rx="0.00" ry="0.00" width="8.29" height="8.29"/>
    <rect x="79.1447" y="23.8816" rx="0.00" ry="0.00" width="8.29" height="8.29"/>
    <rect x="79.1447" y="14.6711" rx="0.00" ry="0.00" width="8.29" height="8.29"/>
    <rect x="79.1447" y="5.4605" rx="0.00" ry="0.00" width="8.29" height="8.29"/>
    <rect x="88.3553" y="88.3553" rx="0.00" ry="0.00" width="8.29" height="8.29"/>
    <rect x="88.3553" y="79.1447" rx="0.00" ry="0.00" width="8.29" height="8.29"/>
    <rect x="88.3553" y="69.9342" rx="0.00" ry="0.00" width="8.29" height="8.29"/>
    <rect x="88.3553" y="60.7237" rx="0.00" ry="0.00" width="8.29" height="8.29"/>
    <rect x="88.3553" y="51.5132" rx="0.00" ry="0.00" width="8.29" height="8.29"/>
    <rect x="88.3553" y="42.3026" rx="0.00" ry="0.00" width="8.29" height="8.29"/>
    <rect x="88.3553" y="33.0921" rx="0.00" ry="0.00" width="8.29" height="8.29"/>
    <rect x="88.3553" y="23.8816" rx="0.00" ry="0.00" width="8.29" height="8.29"/>
    <rect x="88.3553" y="14.6711" rx="0.00" ry="0.00" width="8.29" height="8.29"/>
    <rect x="88.3553" y="5.4605" rx="0.00" ry="0.00" width="8.29" height="8.29"/>
    <rect x="97.5658" y="88.3553" rx="0.00" ry="0.00" width="8.29" height="8.29"/>
    <rect x="97.5658" y="79.1447" rx="0.00" ry="0.00" width="8.29" height="8.29"/>
    <rect x="97.5658" y="69.9342" rx="0.00" ry="0.00" width="8.29" height="8.29"/>
    <rect x="97.5658" y="60.7237" rx="0.00" ry="0.00" width="8.29" height="8.29"/>
    <rect x="97.5658" y="51.5132" rx="0.00" ry="0.00" width="8.29" height="8.29"/>
    <rect x="97.5658" y="42.3026" rx="0.00" ry="0.00" width="8.29" height="8.29"/>
    <rect x="97.5658" y="33.0921" rx="0.00" ry="0.00" width="8.29" height="8.29"/>
    <rect x="97.5658" y="23.8816" rx="0.00" ry="0.00" width="8.29" height="8.29"/>
    <rect x="97.5658" y="14.6711" rx="0.00" ry="0.00" width="8.29" height="8.29"/>
    <rect x="97.5658" y="5.4605" rx="0.00" ry="0.00" width="8.29" height="8.29"/>
    <rect x="106.7763" y="88.3553" rx="0.00" ry="0.00" width="8.29" height="8.29"/>
    <rect x="106.7763" y="79.1447" rx="0.00" ry="0.00" width="8.29" height="8.29"/>
    <rect x="106.7763" y="69.9342" rx="0.00" ry="0.00" width="8.29" height="8.29"/>
    <rect x="106.7763" y="60.7237" rx="0.00" ry="0.00" width="8.29" height="8.29"/>
    <rect x="106.7763" y="51.5132" rx="0.00" ry="0.00" width="8.29" height="8.29"/>
    <rect x="106.7763" y="42.3026" rx="0.00" ry="0.00" width="8.29" height="8.29"/>
    <rect x="106.7763" y="33.0921" rx="0.00" ry="0.00" width="8.29" height="8.29"/>
    <rect x="106.7763" y="23.8816" rx="0.00" ry="0.00" width="8.29" height="8.29"/>
    <rect x="106.7763" y="14.6711" rx="0.00" ry="0.00" width="8.29" height="8.29"/>
    <rect x="106.7763" y="5.4605" rx="0.00" ry="0.00" width="8.29" height="8.29"/>
    <rect x="115.9868" y="88.3553" rx="0.00" ry="0.00" width="8.29" height="8.29"/>
    <rect x="115.9868" y="79.1447" rx="0.00" ry="0.00" width="8.29" height="8.29"/>
    <rect x="115.9868" y="69.9342" rx="0.00" ry="0.00" width="8.29" height="8.29"/>
    <rect x="115.9868" y="60.7237" rx="0.00" ry="0.00" width="8.29" height="8.29"/>
    <rect x="115.9868" y="51.5132" rx="0.00" ry="0.00" width="8.29" height="8.29"/>
    <rect x="115.9868" y="42.3026" rx="0.00" ry="0.00" width="8.29" height="8.29"/>
    <rect x="115.9868" y="33.0921" rx="0.00" ry="0.00" width="8.29" height="8.29"/>
    <rect x="115.9868" y="23.8816" rx="0.00" ry="0.00" width="8.29" height="8.29"/>
    <rect x="115.9868" y="14.6711" rx="0.00" ry="0.00" width="8.29" height="8.29"/>
    <rect x="115.9868" y="5.4605" rx="0.00" ry="0.00" width="8.29" height="8.29"/>
    <rect x="125.1974" y="88.3553" rx="0.00" ry="0.00" width="8.29" height="8.29"/>
    <rect x="125.1974" y="79.1447" rx="0.00" ry="0.00" width="8.29" height="8.29"/>
    <rect x="125.1974" y="69.9342" rx="0.00" ry="0.00" width="8.29" height="8.29"/>
    <rect x="125.1974" y="60.7237" rx="0.00" ry="0.00" width="8.29" height="8.29"/>
    <rect x="125.1974" y="51.5132" rx="0.00" ry="0.00" width="8.29" height="8.29"/>
    <rect x="125.1974" y="42.3026" rx="0.00" ry="0.00" width="8.29" height="8.29"/>
    <rect x="125.1974" y="33.0921" rx="0.00" ry="0.00" width="8.29" height="8.29"/>
    <rect x="125.1974" y="23.8816" rx="0.00" ry="0.00" width="8.29" height="8.29"/>
    <rect x="125.1974" y="14.6711" rx="0.00" ry="0.00" width="8.29" height="8.29"/>
    <rect x="125.1974" y="5.4605" rx="0.00" ry="0.00" width="8.29" height="8.29"/>
    <rect x="134.4079" y="88.3553" rx="0.00" ry="0.00" width="8.29" height="8.29"/>
    <rect x="134.4079" y="79.1447" rx="0.00" ry="0.00" width="8.29" height="8.29"/>
    <rect x="134.4079" y="69.9342" rx="0.00" ry="0.00" width="8.29" height="8.29"/>
    <rect x="134.4079" y="60.7237" rx="0.00" ry="0.00" width="8.29" height="8.29"/>
    <rect x="134.4079" y="51.5132" rx="0.00" ry="0.00" width="8.29" height="8.29"/>
    <rect x="134.4079" y="42.3026" rx="0.00" ry="0.00" width="8.29" height="8.29"/>
    <rect x="134.4079" y="33.0921" rx="0.00" ry="0.00" width="8.29" height="8.29"/>
    <rect x="134.4079" y="23.8816" rx="0.00" ry="0.00" width="8.29" height="8.29"/>
    <rect x="134.4079" y="14.6711" rx="0.00" ry="0.00" width="8.29" height="8.29"/>
    <rect x="134.4079" y="5.4605" rx="0.00" ry="0.00" width="8.29" height="8.29"/>
    <rect x="143.6184" y="88.3553" rx="0.00" ry="0.00" width="8.29" height="8.29"/>
    <rect x="143.6184" y="79.1447" rx="0.00" ry="0.00" width="8.29" height="8.29"/>
    <rect x="143.6184" y="69.9342" rx="0.00" ry="0.00" width="8.29" height="8.29"/>
    <rect x="143.6184" y="60.7237" rx="0.00" ry="0.00" width="8.29" height="8.29"/>
    <rect x="143.6184" y="51.5132" rx="0.00" ry="0.00" width="8.29" height="8.29"/>
    <rect x="143.6184" y="42.3026" rx="0.00" ry="0.00" width="8.29" height="8.29"/>
    <rect x="143.6184" y="33.0921" rx="0.00" ry="0.00" width="8.29" height="8.29"/>
    <rect x="143.6184" y="23.8816" rx="0.00" ry="0.00" width="8.29" height="8.29"/>
    <rect x="143.6184" y="14.6711" rx="0.00" ry="0.00" width="8.29" height="8.29"/>
    <rect x="143.6184" y="5.4605" rx="0.00" ry="0.00" width="8.29" height="8.29"/>
    <rect x="152.8289" y="88.3553" rx="0.00" ry="0.00" width="8.29" height="8.29"/>
    <rect x="152.8289" y="79.1447" rx="0.00" ry="0.00" width="8.29" height="8.29"/>
    <rect x="152.8289" y="69.9342" rx="0.00" ry="0.00" width="8.29" height="8.29"/>
    <rect x="152.8289" y="60.7237" rx="0.00" ry="0.00" width="8.29" height="8.29"/>
    <rect x="152.8289" y="51.5132" rx="0.00" ry="0.00" width="8.29" height="8.29"/>
    <rect x="152.8289" y="42.3026" rx="0.00" ry="0.00" width="8.29" height="8.29"/>
    <rect x="152.8289" y="33.0921" rx="0.00" ry="0.00" width="8.29" height="8.29"/>
    <rect x="152.8289" y="23.8816" rx="0.00" ry="0.00" width="8.29" height="8.29"/>
    <rect x="152.8289" y="14.6711" rx="0.00" ry="0.00" width="8.29" height="8.29"/>
    <rect x="152.8289" y="5.4605" rx="0.00" ry="0.00" width="8.29" height="8.29"/>
    <rect x="162.0395" y="88.3553" rx="0.00" ry="0.00" width="8.29" height="8.29"/>
    <rect x="162.0395" y="79.1447" rx="0.00" ry="0.00" width="8.29" height="8.29"/>
    <rect x="162.0395" y="69.9342" rx="0.00" ry="0.00" width="8.29" height="8.29"/>
    <rect x="162.0395" y="60.7237" rx="0.00" ry="0.00" width="8.29" height="8.29"/>
    <rect x="162.0395" y="51.5132" rx="0.00" ry="0.00" width="8.29" height="8.29"/>
    <rect x="162.0395" y="42.3026" rx="0.00" ry="0.00" width="8.29" height="8.29"/>
    <rect x="162.0395" y="33.0921" rx="0.00" ry="0.00" width="8.29" height="8.29"/>
    <rect x="162.0395" y="23.8816" rx="0.00" ry="0.00" width="8.29" height="8.29"/>
    <rect x="162.0395" y="14.6711" rx="0.00" ry="0.00" width="8.29" height="8.29"/>
    <rect x="162.0395" y="5.4605" rx="0.00" ry="0.00" width="8.29" height="8.29"/>
    <rect x="171.2500" y="88.3553" rx="0.00" ry="0.00" width="8.29" height="8.29"/>
    <rect x="171.2500" y="79.1447" rx="0.00" ry="0.00" width="8.29" height="8.29"/>
    <rect x="171.2500" y="69.9342" rx="0.00" ry="0.00" width="8.29" height="8.29"/>
    <rect x="171.2500" y="60.7237" rx="0.00" ry="0.00" width="8.29" height="8.29"/>
    <rect x="171.2500" y="51.5132" rx="0.00" ry="0.00" width="8.29" height="8.29"/>
    <rect x="171.2500" y="42.3026" rx="0.00" ry="0.00" width="8.29" height="8.29"/>
    <rect x="171.2500" y="33.0921" rx="0.00" ry="0.00" width="8.29" height="8.29"/>
    <rect x="171.2500" y="23.8816" rx="0.00" ry="0.00" width="8.29" height="8.29"/>
    <rect x="171.2500" y="14.6711" rx="0.00" ry="0.00" width="8.29" height="8.29"/>
    <rect x="171.2500" y="5.4605" rx="0.00" ry="0.00" width="8.29" height="8.29"/>
    <rect x="180.4605" y="88.3553" rx="0.00" ry="0.00" width="8.29" height="8.29"/>
    <rect x="180.4605" y="79.1447" rx="0.00" ry="0.00" width="8.29" height="8.29"/>
    <rect x="180.4605" y="69.9342" rx="0.00" ry="0.00" width="8.29" height="8.29"/>
    <rect x="180.4605" y="60.7237" rx="0.00" ry="0.00" width="8.29" height="8.29"/>
    <rect x="180.4605" y="51.5132" rx="0.00" ry="0.00" width="8.29" height="8.29"/>
    <rect x="180.4605" y="42.3026" rx="0.00" ry="0.00" width="8.29" height="8.29"/>
    <rect x="180.4605" y="33.0921" rx="0.00" ry="0.00" width="8.29" height="8.29"/>
    <rect x="180.4605" y="23.8816" rx="0.00" ry="0.00" width="8.29" height="8.29"/>
    <rect x="180.4605" y="14.6711" rx="0.00" ry="0.00" width="8.29" height="8.29"/>
    <rect x="180.4605" y="5.4605" rx="0.00" ry="0.00" width="8.29" height="8.29"/>
    <rect x="189.6711" y="88.3553" rx="0.00" ry="0.00" width="8.29" height="8.29"/>
    <rect x="189.6711" y="79.1447" rx="0.00" ry="0.00" width="8.29" height="8.29"/>
    <rect x="189.6711" y="69.9342" rx="0.00" ry="0.00" width="8.29" height="8.29"/>
    <rect x="189.6711" y="60.7237" rx="0.00" ry="0.00" width="8.29" height="8.29"/>
    <rect x="189.6711" y="51.5132" rx="0.00" ry="0.00" width="8.29" height="8.29"/>
    <rect x="189.6711" y="42.3026" rx="0.00" ry="0.00" width="8.29" height="8.29"/>
    <rect x="189.6711" y="33.0921" rx="0.00" ry="0.00" width="8.29" height="8.29"/>
    <rect x="189.6711" y="23.8816" rx="0.00" ry="0.00" width="8.29" height="8.29"/>
    <rect x="189.6711" y="14.6711" rx="0.00" ry="0.00" width="8.29" height="8.29"/>
    <rect x="189.6711" y="5.4605" rx="0.00" ry="0.00" width="8.29" height="8.29"/>
    <rect x="198.8816" y="88.3553" rx="0.00" ry="0.00" width="8.29" height="8.29"/>
    <rect x="198.8816" y="79.1447" rx="0.00" ry="0.00" width="8.29" height="8.29"/>
    <rect x="198.8816" y="69.9342" rx="0.00" ry="0.00" width="8.29" height="8.29"/>
    <rect x="198.8816" y="60.7237" rx="0.00" ry="0.00" width="8.29" height="8.29"/>
    <rect x="198.8816" y="51.5132" rx="0.00" ry="0.00" width="8.29" height="8.29"/>
    <rect x="198.8816" y="42.3026" rx="0.00" ry="0.00" width="8.29" height="8.29"/>
    <rect x="198.8816" y="33.0921" rx="0.00" ry="0.00" width="8.29" height="8.29"/>
    <rect x="198.8816" y="23.8816" rx="0.00" ry="0.00" width="8.29" height="8.29"/>
    <rect x="198.8816" y="14.6711" rx="0.00" ry="0.00" width="8.29" height="8.29"/>
    <rect x="198.8816" y="5.4605" rx="0.00" ry="0.00" width="8.29" height="8.29"/>
    <rect x="208.0921" y="88.3553" rx="0.00" ry="0.00" width="8.29" height="8.29"/>
    <rect x="208.0921" y="79.1447" rx="0.00" ry="0.00" width="8.29" height="8.29"/>
    <rect x="208.0921" y="69.9342" rx="0.00" ry="0.00" width="8.29" height="8.29"/>
    <rect x="208.0921" y="60.7237" rx="0.00" ry="0.00" width="8.29" height="8.29"/>
    <rect x="208.0921" y="51.5132" rx="0.00" ry="0.00" width="8.29" height="8.29"/>
    <rect x="208.0921" y="42.3026" rx="0.00" ry="0.00" width="8.29" height="8.29"/>
    <rect x="208.0921" y="33.0921" rx="0.00" ry="0.00" width="8.29" height="8.29"/>
    <rect x="208.0921" y="23.8816" rx="0.00" ry="0.00" width="8.29" height="8.29"/>
    <rect x="208.0921" y="14.6711" rx="0.00" ry="0.00" width="8.29" height="8.29"/>
    <rect x="208.0921" y="5.4605" rx="0.00" ry="0.00" width="8.29" height="8.29"/>
    <rect x="217.3026" y="88.3553" rx="0.00" ry="0.00" width="8.29" height="8.29"/>
    <rect x="217.3026" y="79.1447" rx="0.00" ry="0.00" width="8.29" height="8.29"/>
    <rect x="217.3026" y="69.9342" rx="0.00" ry="0.00" width="8.29" height="8.29"/>
    <rect x="217.3026" y="60.7237" rx="0.00" ry="0.00" width="8.29" height="8.29"/>
    <rect x="217.3026" y="51.5132" rx="0.00" ry="0.00" width="8.29" height="8.29"/>
    <rect x="217.3026" y="42.3026" rx="0.00" ry="0.00" width="8.29" height="8.29"/>
    <rect x="217.3026" y="33.0921" rx="0.00" ry="0.00" width="8.29" height="8.29"/>
    <rect x="217.3026" y="23.8816" rx="0.00" ry="0.00" width="8.29" height="8.29"/>
    <rect x="217.3026" y="14.6711" rx="0.00" ry="0.00" width="8.29" height="8.29"/>
    <rect x="217.3026" y="5.4605" rx="0.00" ry="0.00" width="8.29" height="8.29"/>
    <rect x="226.5132" y="88.3553" rx="0.00" ry="0.00" width="8.29" height="8.29"/>
    <rect x="226.5132" y="79.1447" rx="0.00" ry="0.00" width="8.29" height="8.29"/>
    <rect x="226.5132" y="69.9342" rx="0.00" ry="0.00" width="8.29" height="8.29"/>
    <rect x="226.5132" y="60.7237" rx="0.00" ry="0.00" width="8.29" height="8.29"/>
    <rect x="226.5132" y="51.5132" rx="0.00" ry="0.00" width="8.29" height="8.29"/>
    <rect x="226.5132" y="42.3026" rx="0.00" ry="0.00" width="8.29" height="8.29"/>
    <rect x="226.5132" y="33.0921" rx="0.00" ry="0.00" width="8.29" height="8.29"/>
    <rect x="226.5132" y="23.8816" rx="0.00" ry="0.00" width="8.29" height="8.29"/>
    <rect x="226.5132" y="14.6711" rx="0.00" ry="0.00" width="8.29" height="8.29"/>
    <rect x="226.5132" y="5.4605" rx="0.00" ry="0.00" width="8.29" height="8.29"/>
    <rect x="235.7237" y="88.3553" rx="0.00" ry="0.00" width="8.29" height="8.29"/>
    <rect x="235.7237" y="79.1447" rx="0.00" ry="0.00" width="8.29" height="8.29"/>
    <rect x="235.7237" y="69.9342" rx="0.00" ry="0.00" width="8.29" height="8.29"/>
    <rect x="235.7237" y="60.7237" rx="0.00" ry="0.00" width="8.29" height="8.29"/>
    <rect x="235.7237" y="51.5132" rx="0.00" ry="0.00" width="8.29" height="8.29"/>
    <rect x="235.7237" y="42.3026" rx="0.00" ry="0.00" width="8.29" height="8.29"/>
    <rect x="235.7237" y="33.0921" rx="0.00" ry="0.00" width="8.29" height="8.29"/>
    <rect x="235.7237" y="23.8816" rx="0.00" ry="0.00" width="8.29" height="8.29"/>
    <rect x="235.7237" y="14.6711" rx="0.00" ry="0.00" width="8.29" height="8.29"/>
    <rect x="235.7237" y="5.4605" rx="0.00" ry="0.00" width="8.29" height="8.29"/>
    <rect x="244.9342" y="88.3553" rx="0.00" ry="0.00" width="8.29" height="8.29"/>
    <rect x="244.9342" y="79.1447" rx="0.00" ry="0.00" width="8.29" height="8.29"/>
    <rect x="244.9342" y="69.9342" rx="0.00" ry="0.00" width="8.29" height="8.29"/>
    <rect x="244.9342" y="60.7237" rx="0.00" ry="0.00" width="8.29" height="8.29"/>
    <rect x="244.9342" y="51.5132" rx="0.00" ry="0.00" width="8.29" height="8.29"/>
    <rect x="244.9342" y="42.3026" rx="0.00" ry="0.00" width="8.29" height="8.29"/>
    <rect x="244.9342" y="33.0921" rx="0.00" ry="0.00" width="8.29" height="8.29"/>
    <rect x="244.9342" y="23.8816" rx="0.00" ry="0.00" width="8.29" height="8.29"/>
    <rect x="244.9342" y="14.6711" rx="0.00" ry="0.00" width="8.29" height="8.29"/>
    <rect x="244.9342" y="5.4605" rx="0.00" ry="0.00" width="8.29" height="8.29"/>
    <rect x="254.1447" y="88.3553" rx="0.00" ry="0.00" width="8.29" height="8.29"/>
    <rect x="254.1447" y="79.1447" rx="0.00" ry="0.00" width="8.29" height="8.29"/>
    <rect x="254.1447" y="69.9342" rx="0.00" ry="0.00" width="8.29" height="8.29"/>
    <rect x="254.1447" y="60.7237" rx="0.00" ry="0.00" width="8.29" height="8.29"/>
    <rect x="254.1447" y="51.5132" rx="0.00" ry="0.00" width="8.29" height="8.29"/>
    <rect x="254.1447" y="42.3026" rx="0.00" ry="0.00" width="8.29" height="8.29"/>
    <rect x="254.1447" y="33.0921" rx="0.00" ry="0.00" width="8.29" height="8.29"/>
    <rect x="254.1447" y="23.8816" rx="0.00" ry="0.00" width="8.29" height="8.29"/>
    <rect x="254.1447" y="14.6711" rx="0.00" ry="0.00" width="8.29" height="8.29"/>
    <rect x="254.1447" y="5.4605" rx="0.00" ry="0.00" width="8.29" height="8.29"/>
    <rect x="263.3553" y="88.3553" rx="0.00" ry="0.00" width="8.29" height="8.29"/>
    <rect x="263.3553" y="79.1447" rx="0.00" ry="0.00" width="8.29" height="8.29"/>
    <rect x="263.3553" y="69.9342" rx="0.00" ry="0.00" width="8.29" height="8.29"/>
    <rect x="263.3553" y="60.7237" rx="0.00" ry="0.00" width="8.29" height="8.29"/>
    <rect x="263.3553" y="51.5132" rx="0.00" ry="0.00" width="8.29" height="8.29"/>
    <rect x="263.3553" y="42.3026" rx="0.00" ry="0.00" width="8.29" height="8.29"/>
    <rect x="263.3553" y="33.0921" rx="0.00" ry="0.00" width="8.29" height="8.29"/>
    <rect x="263.3553" y="23.8816" rx="0.00" ry="0.00" width="8.29" height="8.29"/>
    <rect x="263.3553" y="14.6711" rx="0.00" ry="0.00" width="8.29" height="8.29"/>
    <rect x="263.3553" y="5.4605" rx="0.00" ry="0.00" width="8.29" height="8.29"/>
    <rect x="272.5658" y="88.3553" rx="0.00" ry="0.00" width="8.29" height="8.29"/>
    <rect x="272.5658" y="79.1447" rx="0.00" ry="0.00" width="8.29" height="8.29"/>
    <rect x="272.5658" y="69.9342" rx="0.00" ry="0.00" width="8.29" height="8.29"/>
    <rect x="272.5658" y="60.7237" rx="0.00" ry="0.00" width="8.29" height="8.29"/>
    <rect x="272.5658" y="51.5132" rx="0.00" ry="0.00" width="8.29" height="8.29"/>
    <rect x="272.5658" y="42.3026" rx="0.00" ry="0.00" width="8.29" height="8.29"/>
    <rect x="272.5658" y="33.0921" rx="0.00" ry="0.00" width="8.29" height="8.29"/>
    <rect x="272.5658" y="23.8816" rx="0.00" ry="0.00" width="8.29" height="8.29"/>
    <rect x="272.5658" y="14.6711" rx="0.00" ry="0.00" width="8.29" height="8.29"/>
    <rect x="272.5658" y="5.4605" rx="0.00" ry="0.00" width="8.29" height="8.29"/>
    <rect x="281.7763" y="88.3553" rx="0.00" ry="0.00" width="8.29" height="8.29"/>
    <rect x="281.7763" y="79.1447" rx="0.00" ry="0.00" width="8.29" height="8.29"/>
    <rect x="281.7763" y="69.9342" rx="0.00" ry="0.00" width="8.29" height="8.29"/>
    <rect x="281.7763" y="60.7237" rx="0.00" ry="0.00" width="8.29" height="8.29"/>
    <rect x="281.7763" y="51.5132" rx="0.00" ry="0.00" width="8.29" height="8.29"/>
    <rect x="281.7763" y="42.3026" rx="0.00" ry="0.00" width="8.29" height="8.29"/>
    <rect x="281.7763" y="33.0921" rx="0.00" ry="0.00" width="8.29" height="8.29"/>
    <rect x="281.7763" y="23.8816" rx="0.00" ry="0.00" width="8.29" height="8.29"/>
    <rect x="281.7763" y="14.6711" rx="0.00" ry="0.00" width="8.29" height="8.29"/>
    <rect x="281.7763" y="5.4605" rx="0.00" ry="0.00" width="8.29" height="8.29"/>
    <rect x="290.9868" y="88.3553" rx="0.00" ry="0.00" width="8.29" height="8.29"/>
    <rect x="290.9868" y="79.1447" rx="0.00" ry="0.00" width="8.29" height="8.29"/>
    <rect x="290.9868" y="69.9342" rx="0.00" ry="0.00" width="8.29" height="8.29"/>
    <rect x="290.9868" y="60.7237" rx="0.00" ry="0.00" width="8.29" height="8.29"/>
    <rect x="290.9868" y="51.5132" rx="0.00" ry="0.00" width="8.29" height="8.29"/>
    <rect x="290.9868" y="42.3026" rx="0.00" ry="0.00" width="8.29" height="8.29"/>
    <rect x="290.9868" y="33.0921" rx="0.00" ry="0.00" width="8.29" height="8.29"/>
    <rect x="290.9868" y="23.8816" rx="0.00" ry="0.00" width="8.29" height="8.29"/>
    <rect x="290.9868" y="14.6711" rx="0.00" ry="0.00" width="8.29" height="8.29"/>
    <rect x="290.9868" y="5.4605" rx="0.00" ry="0.00" width="8.29" height="8.29"/>
    <rect x="300.1974" y="88.3553" rx="0.00" ry="0.00" width="8.29" height="8.29"/>
    <rect x="300.1974" y="79.1447" rx="0.00" ry="0.00" width="8.29" height="8.29"/>
    <rect x="300.1974" y="69.9342" rx="0.00" ry="0.00" width="8.29" height="8.29"/>
    <rect x="300.1974" y="60.7237" rx="0.00" ry="0.00" width="8.29" height="8.29"/>
    <rect x="300.1974" y="51.5132" rx="0.00" ry="0.00" width="8.29" height="8.29"/>
    <rect x="300.1974" y="42.3026" rx="0.00" ry="0.00" width="8.29" height="8.29"/>
    <rect x="300.1974" y="33.0921" rx="0.00" ry="0.00" width="8.29" height="8.29"/>
    <rect x="300.1974" y="23.8816" rx="0.00" ry="0.00" width="8.29" height="8.29"/>
    <rect x="300.1974" y="14.6711" rx="0.00" ry="0.00" width="8.29" height="8.29"/>
    <rect x="300.1974" y="5.4605" rx="0.00" ry="0.00" width="8.29" height="8.29"/>
    <rect x="309.4079" y="88.3553" rx="0.00" ry="0.00" width="8.29" height="8.29"/>
    <rect x="309.4079" y="79.1447" rx="0.00" ry="0.00" width="8.29" height="8.29"/>
    <rect x="309.4079" y="69.9342" rx="0.00" ry="0.00" width="8.29" height="8.29"/>
    <rect x="309.4079" y="60.7237" rx="0.00" ry="0.00" width="8.29" height="8.29"/>
    <rect x="309.4079" y="51.5132" rx="0.00" ry="0.00" width="8.29" height="8.29"/>
    <rect x="309.4079" y="42.3026" rx="0.00" ry="0.00" width="8.29" height="8.29"/>
    <rect x="309.4079" y="33.0921" rx="0.00" ry="0.00" width="8.29" height="8.29"/>
    <rect x="309.4079" y="23.8816" rx="0.00" ry="0.00" width="8.29" height="8.29"/>
    <rect x="309.4079" y="14.6711" rx="0.00" ry="0.00" width="8.29" height="8.29"/>
    <rect x="309.4079" y="5.4605" rx="0.00" ry="0.00" width="8.29" height="8.29"/>
    <rect x="318.6184" y="88.3553" rx="0.00" ry="0.00" width="8.29" height="8.29"/>
    <rect x="318.6184" y="79.1447" rx="0.00" ry="0.00" width="8.29" height="8.29"/>
    <rect x="318.6184" y="69.9342" rx="0.00" ry="0.00" width="8.29" height="8.29"/>
    <rect x="318.6184" y="60.7237" rx="0.00" ry="0.00" width="8.29" height="8.29"/>
    <rect x="318.6184" y="51.5132" rx="0.00" ry="0.00" width="8.29" height="8.29"/>
    <rect x="318.6184" y="42.3026" rx="0.00" ry="0.00" width="8.29" height="8.29"/>
    <rect x="318.6184" y="33.0921" rx="0.00" ry="0.00" width="8.29" height="8.29"/>
    <rect x="318.6184" y="23.8816" rx="0.00" ry="0.00" width="8.29" height="8.29"/>
    <rect x="318.6184" y="14.6711" rx="0.00" ry="0.00" width="8.29" height="8.29"/>
    <rect x="318.6184" y="5.4605" rx="0.00" ry="0.00" width="8.29" height="8.29"/>
    <rect x="327.8289" y="88.3553" rx="0.00" ry="0.00" width="8.29" height="8.29"/>
    <rect x="327.8289" y="79.1447" rx="0.00" ry="0.00" width="8.29" height="8.29"/>
    <rect x="327.8289" y="69.9342" rx="0.00" ry="0.00" width="8.29" height="8.29"/>
    <rect x="327.8289" y="60.7237" rx="0.00" ry="0.00" width="8.29" height="8.29"/>
    <rect x="327.8289" y="51.5132" rx="0.00" ry="0.00" width="8.29" height="8.29"/>
    <rect x="327.8289" y="42.3026" rx="0.00" ry="0.00" width="8.29" height="8.29"/>
    <rect x="327.8289" y="33.0921" rx="0.00" ry="0.00" width="8.29" height="8.29"/>
    <rect x="327.8289" y="23.8816" rx="0.00" ry="0.00" width="8.29" height="8.29"/>
    <rect x="327.8289" y="14.6711" rx="0.00" ry="0.00" width="8.29" height="8.29"/>
    <rect x="327.8289" y="5.4605" rx="0.00" ry="0.00" width="8.29" height="8.29"/>
    <rect x="337.0395" y="88.3553" rx="0.00" ry="0.00" width="8.29" height="8.29"/>
    <rect x="337.0395" y="79.1447" rx="0.00" ry="0.00" width="8.29" height="8.29"/>
    <rect x="337.0395" y="69.9342" rx="0.00" ry="0.00" width="8.29" height="8.29"/>
    <rect x="337.0395" y="60.7237" rx="0.00" ry="0.00" width="8.29" height="8.29"/>
    <rect x="337.0395" y="51.5132" rx="0.00" ry="0.00" width="8.29" height="8.29"/>
    <rect x="337.0395" y="42.3026" rx="0.00" ry="0.00" width="8.29" height="8.29"/>
    <rect x="337.0395" y="33.0921" rx="0.00" ry="0.00" width="8.29" height="8.29"/>
    <rect x="337.0395" y="23.8816" rx="0.00" ry="0.00" width="8.29" height="8.29"/>
    <rect x="337.0395" y="14.6711" rx="0.00" ry="0.00" width="8.29" height="8.29"/>
    <rect x="337.0395" y="5.4605" rx="0.00" ry="0.00" width="8.29" height="8.29"/>
    <rect x="346.2500" y="88.3553" rx="0.00" ry="0.00" width="8.29" height="8.29"/>
    <rect x="346.2500" y="79.1447" rx="0.00" ry="0.00" width="8.29" height="8.29"/>
    <rect x="346.2500" y="69.9342" rx="0.00" ry="0.00" width="8.29" height="8.29"/>
    <rect x="346.2500" y="60.7237" rx="0.00" ry="0.00" width="8.29" height="8.29"/>
    <rect x="346.2500" y="51.5132" rx="0.00" ry="0.00" width="8.29" height="8.29"/>
    <rect x="346.2500" y="42.3026" rx="0.00" ry="0.00" width="8.29" height="8.29"/>
    <rect x="346.2500" y="33.0921" rx="0.00" ry="0.00" width="8.29" height="8.29"/>
  </g>
  </g>
  <g id="rightbench">
  <g style="fill:#AD1FFF" id="Peace Party">
    <rect x="14.6711" y="115.9868" rx="0.00" ry="0.00" width="8.29" height="8.29"/>
    <rect x="14.6711" y="125.1974" rx="0.00" ry="0.00" width="8.29" height="8.29"/>
    <rect x="14.6711" y="134.4079" rx="0.00" ry="0.00" width="8.29" height="8.29"/>
    <rect x="14.6711" y="143.6184" rx="0.00" ry="0.00" width="8.29" height="8.29"/>
    <rect x="14.6711" y="152.8289" rx="0.00" ry="0.00" width="8.29" height="8.29"/>
    <rect x="14.6711" y="162.0395" rx="0.00" ry="0.00" width="8.29" height="8.29"/>
  </g>
  <g style="fill:#EF0E0E" id="SLRA">
    <rect x="14.6711" y="171.2500" rx="0.00" ry="0.00" width="8.29" height="8.29"/>
    <rect x="14.6711" y="180.4605" rx="0.00" ry="0.00" width="8.29" height="8.29"/>
    <rect x="14.6711" y="189.6711" rx="0.00" ry="0.00" width="8.29" height="8.29"/>
    <rect x="14.6711" y="198.8816" rx="0.00" ry="0.00" width="8.29" height="8.29"/>
    <rect x="23.8816" y="115.9868" rx="0.00" ry="0.00" width="8.29" height="8.29"/>
    <rect x="23.8816" y="125.1974" rx="0.00" ry="0.00" width="8.29" height="8.29"/>
    <rect x="23.8816" y="134.4079" rx="0.00" ry="0.00" width="8.29" height="8.29"/>
    <rect x="23.8816" y="143.6184" rx="0.00" ry="0.00" width="8.29" height="8.29"/>
    <rect x="23.8816" y="152.8289" rx="0.00" ry="0.00" width="8.29" height="8.29"/>
    <rect x="23.8816" y="162.0395" rx="0.00" ry="0.00" width="8.29" height="8.29"/>
    <rect x="23.8816" y="171.2500" rx="0.00" ry="0.00" width="8.29" height="8.29"/>
    <rect x="23.8816" y="180.4605" rx="0.00" ry="0.00" width="8.29" height="8.29"/>
    <rect x="23.8816" y="189.6711" rx="0.00" ry="0.00" width="8.29" height="8.29"/>
    <rect x="23.8816" y="198.8816" rx="0.00" ry="0.00" width="8.29" height="8.29"/>
    <rect x="33.0921" y="115.9868" rx="0.00" ry="0.00" width="8.29" height="8.29"/>
    <rect x="33.0921" y="125.1974" rx="0.00" ry="0.00" width="8.29" height="8.29"/>
    <rect x="33.0921" y="134.4079" rx="0.00" ry="0.00" width="8.29" height="8.29"/>
    <rect x="33.0921" y="143.6184" rx="0.00" ry="0.00" width="8.29" height="8.29"/>
    <rect x="33.0921" y="152.8289" rx="0.00" ry="0.00" width="8.29" height="8.29"/>
    <rect x="33.0921" y="162.0395" rx="0.00" ry="0.00" width="8.29" height="8.29"/>
    <rect x="33.0921" y="171.2500" rx="0.00" ry="0.00" width="8.29" height="8.29"/>
    <rect x="33.0921" y="180.4605" rx="0.00" ry="0.00" width="8.29" height="8.29"/>
    <rect x="33.0921" y="189.6711" rx="0.00" ry="0.00" width="8.29" height="8.29"/>
    <rect x="33.0921" y="198.8816" rx="0.00" ry="0.00" width="8.29" height="8.29"/>
    <rect x="42.3026" y="115.9868" rx="0.00" ry="0.00" width="8.29" height="8.29"/>
    <rect x="42.3026" y="125.1974" rx="0.00" ry="0.00" width="8.29" height="8.29"/>
    <rect x="42.3026" y="134.4079" rx="0.00" ry="0.00" width="8.29" height="8.29"/>
    <rect x="42.3026" y="143.6184" rx="0.00" ry="0.00" width="8.29" height="8.29"/>
    <rect x="42.3026" y="152.8289" rx="0.00" ry="0.00" width="8.29" height="8.29"/>
    <rect x="42.3026" y="162.0395" rx="0.00" ry="0.00" width="8.29" height="8.29"/>
    <rect x="42.3026" y="171.2500" rx="0.00" ry="0.00" width="8.29" height="8.29"/>
    <rect x="42.3026" y="180.4605" rx="0.00" ry="0.00" width="8.29" height="8.29"/>
    <rect x="42.3026" y="189.6711" rx="0.00" ry="0.00" width="8.29" height="8.29"/>
    <rect x="42.3026" y="198.8816" rx="0.00" ry="0.00" width="8.29" height="8.29"/>
    <rect x="51.5132" y="115.9868" rx="0.00" ry="0.00" width="8.29" height="8.29"/>
    <rect x="51.5132" y="125.1974" rx="0.00" ry="0.00" width="8.29" height="8.29"/>
    <rect x="51.5132" y="134.4079" rx="0.00" ry="0.00" width="8.29" height="8.29"/>
    <rect x="51.5132" y="143.6184" rx="0.00" ry="0.00" width="8.29" height="8.29"/>
    <rect x="51.5132" y="152.8289" rx="0.00" ry="0.00" width="8.29" height="8.29"/>
    <rect x="51.5132" y="162.0395" rx="0.00" ry="0.00" width="8.29" height="8.29"/>
    <rect x="51.5132" y="171.2500" rx="0.00" ry="0.00" width="8.29" height="8.29"/>
    <rect x="51.5132" y="180.4605" rx="0.00" ry="0.00" width="8.29" height="8.29"/>
    <rect x="51.5132" y="189.6711" rx="0.00" ry="0.00" width="8.29" height="8.29"/>
    <rect x="51.5132" y="198.8816" rx="0.00" ry="0.00" width="8.29" height="8.29"/>
    <rect x="60.7237" y="115.9868" rx="0.00" ry="0.00" width="8.29" height="8.29"/>
    <rect x="60.7237" y="125.1974" rx="0.00" ry="0.00" width="8.29" height="8.29"/>
    <rect x="60.7237" y="134.4079" rx="0.00" ry="0.00" width="8.29" height="8.29"/>
    <rect x="60.7237" y="143.6184" rx="0.00" ry="0.00" width="8.29" height="8.29"/>
    <rect x="60.7237" y="152.8289" rx="0.00" ry="0.00" width="8.29" height="8.29"/>
    <rect x="60.7237" y="162.0395" rx="0.00" ry="0.00" width="8.29" height="8.29"/>
    <rect x="60.7237" y="171.2500" rx="0.00" ry="0.00" width="8.29" height="8.29"/>
    <rect x="60.7237" y="180.4605" rx="0.00" ry="0.00" width="8.29" height="8.29"/>
    <rect x="60.7237" y="189.6711" rx="0.00" ry="0.00" width="8.29" height="8.29"/>
    <rect x="60.7237" y="198.8816" rx="0.00" ry="0.00" width="8.29" height="8.29"/>
    <rect x="69.9342" y="115.9868" rx="0.00" ry="0.00" width="8.29" height="8.29"/>
    <rect x="69.9342" y="125.1974" rx="0.00" ry="0.00" width="8.29" height="8.29"/>
    <rect x="69.9342" y="134.4079" rx="0.00" ry="0.00" width="8.29" height="8.29"/>
    <rect x="69.9342" y="143.6184" rx="0.00" ry="0.00" width="8.29" height="8.29"/>
    <rect x="69.9342" y="152.8289" rx="0.00" ry="0.00" width="8.29" height="8.29"/>
    <rect x="69.9342" y="162.0395" rx="0.00" ry="0.00" width="8.29" height="8.29"/>
    <rect x="69.9342" y="171.2500" rx="0.00" ry="0.00" width="8.29" height="8.29"/>
    <rect x="69.9342" y="180.4605" rx="0.00" ry="0.00" width="8.29" height="8.29"/>
    <rect x="69.9342" y="189.6711" rx="0.00" ry="0.00" width="8.29" height="8.29"/>
    <rect x="69.9342" y="198.8816" rx="0.00" ry="0.00" width="8.29" height="8.29"/>
    <rect x="79.1447" y="115.9868" rx="0.00" ry="0.00" width="8.29" height="8.29"/>
    <rect x="79.1447" y="125.1974" rx="0.00" ry="0.00" width="8.29" height="8.29"/>
    <rect x="79.1447" y="134.4079" rx="0.00" ry="0.00" width="8.29" height="8.29"/>
    <rect x="79.1447" y="143.6184" rx="0.00" ry="0.00" width="8.29" height="8.29"/>
    <rect x="79.1447" y="152.8289" rx="0.00" ry="0.00" width="8.29" height="8.29"/>
    <rect x="79.1447" y="162.0395" rx="0.00" ry="0.00" width="8.29" height="8.29"/>
    <rect x="79.1447" y="171.2500" rx="0.00" ry="0.00" width="8.29" height="8.29"/>
    <rect x="79.1447" y="180.4605" rx="0.00" ry="0.00" width="8.29" height="8.29"/>
    <rect x="79.1447" y="189.6711" rx="0.00" ry="0.00" width="8.29" height="8.29"/>
    <rect x="79.1447" y="198.8816" rx="0.00" ry="0.00" width="8.29" height="8.29"/>
    <rect x="88.3553" y="115.9868" rx="0.00" ry="0.00" width="8.29" height="8.29"/>
    <rect x="88.3553" y="125.1974" rx="0.00" ry="0.00" width="8.29" height="8.29"/>
    <rect x="88.3553" y="134.4079" rx="0.00" ry="0.00" width="8.29" height="8.29"/>
    <rect x="88.3553" y="143.6184" rx="0.00" ry="0.00" width="8.29" height="8.29"/>
    <rect x="88.3553" y="152.8289" rx="0.00" ry="0.00" width="8.29" height="8.29"/>
    <rect x="88.3553" y="162.0395" rx="0.00" ry="0.00" width="8.29" height="8.29"/>
    <rect x="88.3553" y="171.2500" rx="0.00" ry="0.00" width="8.29" height="8.29"/>
    <rect x="88.3553" y="180.4605" rx="0.00" ry="0.00" width="8.29" height="8.29"/>
    <rect x="88.3553" y="189.6711" rx="0.00" ry="0.00" width="8.29" height="8.29"/>
    <rect x="88.3553" y="198.8816" rx="0.00" ry="0.00" width="8.29" height="8.29"/>
    <rect x="97.5658" y="115.9868" rx="0.00" ry="0.00" width="8.29" height="8.29"/>
    <rect x="97.5658" y="125.1974" rx="0.00" ry="0.00" width="8.29" height="8.29"/>
    <rect x="97.5658" y="134.4079" rx="0.00" ry="0.00" width="8.29" height="8.29"/>
    <rect x="97.5658" y="143.6184" rx="0.00" ry="0.00" width="8.29" height="8.29"/>
    <rect x="97.5658" y="152.8289" rx="0.00" ry="0.00" width="8.29" height="8.29"/>
    <rect x="97.5658" y="162.0395" rx="0.00" ry="0.00" width="8.29" height="8.29"/>
    <rect x="97.5658" y="171.2500" rx="0.00" ry="0.00" width="8.29" height="8.29"/>
    <rect x="97.5658" y="180.4605" rx="0.00" ry="0.00" width="8.29" height="8.29"/>
    <rect x="97.5658" y="189.6711" rx="0.00" ry="0.00" width="8.29" height="8.29"/>
    <rect x="97.5658" y="198.8816" rx="0.00" ry="0.00" width="8.29" height="8.29"/>
    <rect x="106.7763" y="115.9868" rx="0.00" ry="0.00" width="8.29" height="8.29"/>
    <rect x="106.7763" y="125.1974" rx="0.00" ry="0.00" width="8.29" height="8.29"/>
    <rect x="106.7763" y="134.4079" rx="0.00" ry="0.00" width="8.29" height="8.29"/>
    <rect x="106.7763" y="143.6184" rx="0.00" ry="0.00" width="8.29" height="8.29"/>
    <rect x="106.7763" y="152.8289" rx="0.00" ry="0.00" width="8.29" height="8.29"/>
    <rect x="106.7763" y="162.0395" rx="0.00" ry="0.00" width="8.29" height="8.29"/>
    <rect x="106.7763" y="171.2500" rx="0.00" ry="0.00" width="8.29" height="8.29"/>
    <rect x="106.7763" y="180.4605" rx="0.00" ry="0.00" width="8.29" height="8.29"/>
    <rect x="106.7763" y="189.6711" rx="0.00" ry="0.00" width="8.29" height="8.29"/>
    <rect x="106.7763" y="198.8816" rx="0.00" ry="0.00" width="8.29" height="8.29"/>
    <rect x="115.9868" y="115.9868" rx="0.00" ry="0.00" width="8.29" height="8.29"/>
    <rect x="115.9868" y="125.1974" rx="0.00" ry="0.00" width="8.29" height="8.29"/>
    <rect x="115.9868" y="134.4079" rx="0.00" ry="0.00" width="8.29" height="8.29"/>
    <rect x="115.9868" y="143.6184" rx="0.00" ry="0.00" width="8.29" height="8.29"/>
    <rect x="115.9868" y="152.8289" rx="0.00" ry="0.00" width="8.29" height="8.29"/>
    <rect x="115.9868" y="162.0395" rx="0.00" ry="0.00" width="8.29" height="8.29"/>
    <rect x="115.9868" y="171.2500" rx="0.00" ry="0.00" width="8.29" height="8.29"/>
    <rect x="115.9868" y="180.4605" rx="0.00" ry="0.00" width="8.29" height="8.29"/>
    <rect x="115.9868" y="189.6711" rx="0.00" ry="0.00" width="8.29" height="8.29"/>
    <rect x="115.9868" y="198.8816" rx="0.00" ry="0.00" width="8.29" height="8.29"/>
    <rect x="125.1974" y="115.9868" rx="0.00" ry="0.00" width="8.29" height="8.29"/>
    <rect x="125.1974" y="125.1974" rx="0.00" ry="0.00" width="8.29" height="8.29"/>
    <rect x="125.1974" y="134.4079" rx="0.00" ry="0.00" width="8.29" height="8.29"/>
    <rect x="125.1974" y="143.6184" rx="0.00" ry="0.00" width="8.29" height="8.29"/>
    <rect x="125.1974" y="152.8289" rx="0.00" ry="0.00" width="8.29" height="8.29"/>
    <rect x="125.1974" y="162.0395" rx="0.00" ry="0.00" width="8.29" height="8.29"/>
    <rect x="125.1974" y="171.2500" rx="0.00" ry="0.00" width="8.29" height="8.29"/>
    <rect x="125.1974" y="180.4605" rx="0.00" ry="0.00" width="8.29" height="8.29"/>
    <rect x="125.1974" y="189.6711" rx="0.00" ry="0.00" width="8.29" height="8.29"/>
    <rect x="125.1974" y="198.8816" rx="0.00" ry="0.00" width="8.29" height="8.29"/>
    <rect x="134.4079" y="115.9868" rx="0.00" ry="0.00" width="8.29" height="8.29"/>
    <rect x="134.4079" y="125.1974" rx="0.00" ry="0.00" width="8.29" height="8.29"/>
    <rect x="134.4079" y="134.4079" rx="0.00" ry="0.00" width="8.29" height="8.29"/>
    <rect x="134.4079" y="143.6184" rx="0.00" ry="0.00" width="8.29" height="8.29"/>
    <rect x="134.4079" y="152.8289" rx="0.00" ry="0.00" width="8.29" height="8.29"/>
    <rect x="134.4079" y="162.0395" rx="0.00" ry="0.00" width="8.29" height="8.29"/>
    <rect x="134.4079" y="171.2500" rx="0.00" ry="0.00" width="8.29" height="8.29"/>
    <rect x="134.4079" y="180.4605" rx="0.00" ry="0.00" width="8.29" height="8.29"/>
    <rect x="134.4079" y="189.6711" rx="0.00" ry="0.00" width="8.29" height="8.29"/>
    <rect x="134.4079" y="198.8816" rx="0.00" ry="0.00" width="8.29" height="8.29"/>
    <rect x="143.6184" y="115.9868" rx="0.00" ry="0.00" width="8.29" height="8.29"/>
    <rect x="143.6184" y="125.1974" rx="0.00" ry="0.00" width="8.29" height="8.29"/>
    <rect x="143.6184" y="134.4079" rx="0.00" ry="0.00" width="8.29" height="8.29"/>
    <rect x="143.6184" y="143.6184" rx="0.00" ry="0.00" width="8.29" height="8.29"/>
    <rect x="143.6184" y="152.8289" rx="0.00" ry="0.00" width="8.29" height="8.29"/>
    <rect x="143.6184" y="162.0395" rx="0.00" ry="0.00" width="8.29" height="8.29"/>
    <rect x="143.6184" y="171.2500" rx="0.00" ry="0.00" width="8.29" height="8.29"/>
    <rect x="143.6184" y="180.4605" rx="0.00" ry="0.00" width="8.29" height="8.29"/>
    <rect x="143.6184" y="189.6711" rx="0.00" ry="0.00" width="8.29" height="8.29"/>
    <rect x="143.6184" y="198.8816" rx="0.00" ry="0.00" width="8.29" height="8.29"/>
    <rect x="152.8289" y="115.9868" rx="0.00" ry="0.00" width="8.29" height="8.29"/>
    <rect x="152.8289" y="125.1974" rx="0.00" ry="0.00" width="8.29" height="8.29"/>
    <rect x="152.8289" y="134.4079" rx="0.00" ry="0.00" width="8.29" height="8.29"/>
    <rect x="152.8289" y="143.6184" rx="0.00" ry="0.00" width="8.29" height="8.29"/>
    <rect x="152.8289" y="152.8289" rx="0.00" ry="0.00" width="8.29" height="8.29"/>
    <rect x="152.8289" y="162.0395" rx="0.00" ry="0.00" width="8.29" height="8.29"/>
    <rect x="152.8289" y="171.2500" rx="0.00" ry="0.00" width="8.29" height="8.29"/>
    <rect x="152.8289" y="180.4605" rx="0.00" ry="0.00" width="8.29" height="8.29"/>
    <rect x="152.8289" y="189.6711" rx="0.00" ry="0.00" width="8.29" height="8.29"/>
    <rect x="152.8289" y="198.8816" rx="0.00" ry="0.00" width="8.29" height="8.29"/>
    <rect x="162.0395" y="115.9868" rx="0.00" ry="0.00" width="8.29" height="8.29"/>
    <rect x="162.0395" y="125.1974" rx="0.00" ry="0.00" width="8.29" height="8.29"/>
    <rect x="162.0395" y="134.4079" rx="0.00" ry="0.00" width="8.29" height="8.29"/>
    <rect x="162.0395" y="143.6184" rx="0.00" ry="0.00" width="8.29" height="8.29"/>
    <rect x="162.0395" y="152.8289" rx="0.00" ry="0.00" width="8.29" height="8.29"/>
    <rect x="162.0395" y="162.0395" rx="0.00" ry="0.00" width="8.29" height="8.29"/>
    <rect x="162.0395" y="171.2500" rx="0.00" ry="0.00" width="8.29" height="8.29"/>
    <rect x="162.0395" y="180.4605" rx="0.00" ry="0.00" width="8.29" height="8.29"/>
    <rect x="162.0395" y="189.6711" rx="0.00" ry="0.00" width="8.29" height="8.29"/>
    <rect x="162.0395" y="198.8816" rx="0.00" ry="0.00" width="8.29" height="8.29"/>
    <rect x="171.2500" y="115.9868" rx="0.00" ry="0.00" width="8.29" height="8.29"/>
    <rect x="171.2500" y="125.1974" rx="0.00" ry="0.00" width="8.29" height="8.29"/>
    <rect x="171.2500" y="134.4079" rx="0.00" ry="0.00" width="8.29" height="8.29"/>
    <rect x="171.2500" y="143.6184" rx="0.00" ry="0.00" width="8.29" height="8.29"/>
    <rect x="171.2500" y="152.8289" rx="0.00" ry="0.00" width="8.29" height="8.29"/>
    <rect x="171.2500" y="162.0395" rx="0.00" ry="0.00" width="8.29" height="8.29"/>
    <rect x="171.2500" y="171.2500" rx="0.00" ry="0.00" width="8.29" height="8.29"/>
    <rect x="171.2500" y="180.4605" rx="0.00" ry="0.00" width="8.29" height="8.29"/>
    <rect x="171.2500" y="189.6711" rx="0.00" ry="0.00" width="8.29" height="8.29"/>
    <rect x="171.2500" y="198.8816" rx="0.00" ry="0.00" width="8.29" height="8.29"/>
    <rect x="180.4605" y="115.9868" rx="0.00" ry="0.00" width="8.29" height="8.29"/>
    <rect x="180.4605" y="125.1974" rx="0.00" ry="0.00" width="8.29" height="8.29"/>
    <rect x="180.4605" y="134.4079" rx="0.00" ry="0.00" width="8.29" height="8.29"/>
    <rect x="180.4605" y="143.6184" rx="0.00" ry="0.00" width="8.29" height="8.29"/>
    <rect x="180.4605" y="152.8289" rx="0.00" ry="0.00" width="8.29" height="8.29"/>
    <rect x="180.4605" y="162.0395" rx="0.00" ry="0.00" width="8.29" height="8.29"/>
    <rect x="180.4605" y="171.2500" rx="0.00" ry="0.00" width="8.29" height="8.29"/>
    <rect x="180.4605" y="180.4605" rx="0.00" ry="0.00" width="8.29" height="8.29"/>
    <rect x="180.4605" y="189.6711" rx="0.00" ry="0.00" width="8.29" height="8.29"/>
    <rect x="180.4605" y="198.8816" rx="0.00" ry="0.00" width="8.29" height="8.29"/>
    <rect x="189.6711" y="115.9868" rx="0.00" ry="0.00" width="8.29" height="8.29"/>
    <rect x="189.6711" y="125.1974" rx="0.00" ry="0.00" width="8.29" height="8.29"/>
    <rect x="189.6711" y="134.4079" rx="0.00" ry="0.00" width="8.29" height="8.29"/>
    <rect x="189.6711" y="143.6184" rx="0.00" ry="0.00" width="8.29" height="8.29"/>
    <rect x="189.6711" y="152.8289" rx="0.00" ry="0.00" width="8.29" height="8.29"/>
    <rect x="189.6711" y="162.0395" rx="0.00" ry="0.00" width="8.29" height="8.29"/>
    <rect x="189.6711" y="171.2500" rx="0.00" ry="0.00" width="8.29" height="8.29"/>
    <rect x="189.6711" y="180.4605" rx="0.00" ry="0.00" width="8.29" height="8.29"/>
    <rect x="189.6711" y="189.6711" rx="0.00" ry="0.00" width="8.29" height="8.29"/>
    <rect x="189.6711" y="198.8816" rx="0.00" ry="0.00" width="8.29" height="8.29"/>
    <rect x="198.8816" y="115.9868" rx="0.00" ry="0.00" width="8.29" height="8.29"/>
    <rect x="198.8816" y="125.1974" rx="0.00" ry="0.00" width="8.29" height="8.29"/>
    <rect x="198.8816" y="134.4079" rx="0.00" ry="0.00" width="8.29" height="8.29"/>
    <rect x="198.8816" y="143.6184" rx="0.00" ry="0.00" width="8.29" height="8.29"/>
    <rect x="198.8816" y="152.8289" rx="0.00" ry="0.00" width="8.29" height="8.29"/>
    <rect x="198.8816" y="162.0395" rx="0.00" ry="0.00" width="8.29" height="8.29"/>
    <rect x="198.8816" y="171.2500" rx="0.00" ry="0.00" width="8.29" height="8.29"/>
    <rect x="198.8816" y="180.4605" rx="0.00" ry="0.00" width="8.29" height="8.29"/>
    <rect x="198.8816" y="189.6711" rx="0.00" ry="0.00" width="8.29" height="8.29"/>
    <rect x="198.8816" y="198.8816" rx="0.00" ry="0.00" width="8.29" height="8.29"/>
    <rect x="208.0921" y="115.9868" rx="0.00" ry="0.00" width="8.29" height="8.29"/>
    <rect x="208.0921" y="125.1974" rx="0.00" ry="0.00" width="8.29" height="8.29"/>
    <rect x="208.0921" y="134.4079" rx="0.00" ry="0.00" width="8.29" height="8.29"/>
    <rect x="208.0921" y="143.6184" rx="0.00" ry="0.00" width="8.29" height="8.29"/>
    <rect x="208.0921" y="152.8289" rx="0.00" ry="0.00" width="8.29" height="8.29"/>
    <rect x="208.0921" y="162.0395" rx="0.00" ry="0.00" width="8.29" height="8.29"/>
    <rect x="208.0921" y="171.2500" rx="0.00" ry="0.00" width="8.29" height="8.29"/>
    <rect x="208.0921" y="180.4605" rx="0.00" ry="0.00" width="8.29" height="8.29"/>
    <rect x="208.0921" y="189.6711" rx="0.00" ry="0.00" width="8.29" height="8.29"/>
    <rect x="208.0921" y="198.8816" rx="0.00" ry="0.00" width="8.29" height="8.29"/>
    <rect x="217.3026" y="115.9868" rx="0.00" ry="0.00" width="8.29" height="8.29"/>
    <rect x="217.3026" y="125.1974" rx="0.00" ry="0.00" width="8.29" height="8.29"/>
    <rect x="217.3026" y="134.4079" rx="0.00" ry="0.00" width="8.29" height="8.29"/>
    <rect x="217.3026" y="143.6184" rx="0.00" ry="0.00" width="8.29" height="8.29"/>
    <rect x="217.3026" y="152.8289" rx="0.00" ry="0.00" width="8.29" height="8.29"/>
    <rect x="217.3026" y="162.0395" rx="0.00" ry="0.00" width="8.29" height="8.29"/>
    <rect x="217.3026" y="171.2500" rx="0.00" ry="0.00" width="8.29" height="8.29"/>
    <rect x="217.3026" y="180.4605" rx="0.00" ry="0.00" width="8.29" height="8.29"/>
    <rect x="217.3026" y="189.6711" rx="0.00" ry="0.00" width="8.29" height="8.29"/>
    <rect x="217.3026" y="198.8816" rx="0.00" ry="0.00" width="8.29" height="8.29"/>
    <rect x="226.5132" y="115.9868" rx="0.00" ry="0.00" width="8.29" height="8.29"/>
    <rect x="226.5132" y="125.1974" rx="0.00" ry="0.00" width="8.29" height="8.29"/>
    <rect x="226.5132" y="134.4079" rx="0.00" ry="0.00" width="8.29" height="8.29"/>
    <rect x="226.5132" y="143.6184" rx="0.00" ry="0.00" width="8.29" height="8.29"/>
    <rect x="226.5132" y="152.8289" rx="0.00" ry="0.00" width="8.29" height="8.29"/>
    <rect x="226.5132" y="162.0395" rx="0.00" ry="0.00" width="8.29" height="8.29"/>
    <rect x="226.5132" y="171.2500" rx="0.00" ry="0.00" width="8.29" height="8.29"/>
    <rect x="226.5132" y="180.4605" rx="0.00" ry="0.00" width="8.29" height="8.29"/>
    <rect x="226.5132" y="189.6711" rx="0.00" ry="0.00" width="8.29" height="8.29"/>
    <rect x="226.5132" y="198.8816" rx="0.00" ry="0.00" width="8.29" height="8.29"/>
    <rect x="235.7237" y="115.9868" rx="0.00" ry="0.00" width="8.29" height="8.29"/>
    <rect x="235.7237" y="125.1974" rx="0.00" ry="0.00" width="8.29" height="8.29"/>
    <rect x="235.7237" y="134.4079" rx="0.00" ry="0.00" width="8.29" height="8.29"/>
    <rect x="235.7237" y="143.6184" rx="0.00" ry="0.00" width="8.29" height="8.29"/>
    <rect x="235.7237" y="152.8289" rx="0.00" ry="0.00" width="8.29" height="8.29"/>
    <rect x="235.7237" y="162.0395" rx="0.00" ry="0.00" width="8.29" height="8.29"/>
    <rect x="235.7237" y="171.2500" rx="0.00" ry="0.00" width="8.29" height="8.29"/>
    <rect x="235.7237" y="180.4605" rx="0.00" ry="0.00" width="8.29" height="8.29"/>
    <rect x="235.7237" y="189.6711" rx="0.00" ry="0.00" width="8.29" height="8.29"/>
    <rect x="235.7237" y="198.8816" rx="0.00" ry="0.00" width="8.29" height="8.29"/>
    <rect x="244.9342" y="115.9868" rx="0.00" ry="0.00" width="8.29" height="8.29"/>
    <rect x="244.9342" y="125.1974" rx="0.00" ry="0.00" width="8.29" height="8.29"/>
    <rect x="244.9342" y="134.4079" rx="0.00" ry="0.00" width="8.29" height="8.29"/>
    <rect x="244.9342" y="143.6184" rx="0.00" ry="0.00" width="8.29" height="8.29"/>
    <rect x="244.9342" y="152.8289" rx="0.00" ry="0.00" width="8.29" height="8.29"/>
    <rect x="244.9342" y="162.0395" rx="0.00" ry="0.00" width="8.29" height="8.29"/>
    <rect x="244.9342" y="171.2500" rx="0.00" ry="0.00" width="8.29" height="8.29"/>
    <rect x="244.9342" y="180.4605" rx="0.00" ry="0.00" width="8.29" height="8.29"/>
    <rect x="244.9342" y="189.6711" rx="0.00" ry="0.00" width="8.29" height="8.29"/>
    <rect x="244.9342" y="198.8816" rx="0.00" ry="0.00" width="8.29" height="8.29"/>
    <rect x="254.1447" y="115.9868" rx="0.00" ry="0.00" width="8.29" height="8.29"/>
    <rect x="254.1447" y="125.1974" rx="0.00" ry="0.00" width="8.29" height="8.29"/>
    <rect x="254.1447" y="134.4079" rx="0.00" ry="0.00" width="8.29" height="8.29"/>
    <rect x="254.1447" y="143.6184" rx="0.00" ry="0.00" width="8.29" height="8.29"/>
    <rect x="254.1447" y="152.8289" rx="0.00" ry="0.00" width="8.29" height="8.29"/>
    <rect x="254.1447" y="162.0395" rx="0.00" ry="0.00" width="8.29" height="8.29"/>
  </g>
  </g>
  <g id="centerbench">
  </g>
</g>
</svg>
